G04 Layer_Color=0*
%FSLAX26Y26*%
%MOIN*%
%TF.FileFunction,Plated,1,2,PTH,Drill*%
%TF.Part,Single*%
G01*
G75*
%TA.AperFunction,ComponentDrill*%
%ADD18C,0.035433*%
%ADD19C,0.035433*%
%ADD20C,0.033465*%
%TA.AperFunction,ViaDrill,NotFilled*%
%ADD21C,0.028000*%
D18*
X7180000Y2550000D02*
D03*
Y2450000D02*
D03*
Y2350000D02*
D03*
Y2250000D02*
D03*
Y2150000D02*
D03*
Y2050000D02*
D03*
Y1950000D02*
D03*
Y1850000D02*
D03*
X7480000Y2550000D02*
D03*
Y2450000D02*
D03*
Y2350000D02*
D03*
Y2250000D02*
D03*
Y2150000D02*
D03*
Y2050000D02*
D03*
Y1950000D02*
D03*
Y1850000D02*
D03*
X7180000Y3490000D02*
D03*
Y3390000D02*
D03*
Y3290000D02*
D03*
Y3190000D02*
D03*
Y3090000D02*
D03*
Y2990000D02*
D03*
Y2890000D02*
D03*
Y2790000D02*
D03*
X7480000Y3490000D02*
D03*
Y3390000D02*
D03*
Y3290000D02*
D03*
Y3190000D02*
D03*
Y3090000D02*
D03*
Y2990000D02*
D03*
Y2890000D02*
D03*
Y2790000D02*
D03*
X2555000Y4335000D02*
D03*
Y4235000D02*
D03*
Y4135000D02*
D03*
Y4035000D02*
D03*
Y3935000D02*
D03*
Y3835000D02*
D03*
Y3735000D02*
D03*
Y3635000D02*
D03*
X2855000Y4335000D02*
D03*
Y4235000D02*
D03*
Y4135000D02*
D03*
Y4035000D02*
D03*
Y3935000D02*
D03*
Y3835000D02*
D03*
Y3735000D02*
D03*
Y3635000D02*
D03*
X3885000Y4335000D02*
D03*
Y4235000D02*
D03*
Y4135000D02*
D03*
Y4035000D02*
D03*
Y3935000D02*
D03*
Y3835000D02*
D03*
Y3735000D02*
D03*
Y3635000D02*
D03*
X4185000Y4335000D02*
D03*
Y4235000D02*
D03*
Y4135000D02*
D03*
Y4035000D02*
D03*
Y3935000D02*
D03*
Y3835000D02*
D03*
Y3735000D02*
D03*
Y3635000D02*
D03*
X4975000Y4335000D02*
D03*
Y4235000D02*
D03*
Y4135000D02*
D03*
Y4035000D02*
D03*
Y3935000D02*
D03*
Y3835000D02*
D03*
Y3735000D02*
D03*
Y3635000D02*
D03*
X5275000Y4335000D02*
D03*
Y4235000D02*
D03*
Y4135000D02*
D03*
Y4035000D02*
D03*
Y3935000D02*
D03*
Y3835000D02*
D03*
Y3735000D02*
D03*
Y3635000D02*
D03*
X6480000Y4335000D02*
D03*
Y4235000D02*
D03*
Y4135000D02*
D03*
Y4035000D02*
D03*
Y3935000D02*
D03*
Y3835000D02*
D03*
Y3735000D02*
D03*
Y3635000D02*
D03*
X6780000Y4335000D02*
D03*
Y4235000D02*
D03*
Y4135000D02*
D03*
Y4035000D02*
D03*
Y3935000D02*
D03*
Y3835000D02*
D03*
Y3735000D02*
D03*
Y3635000D02*
D03*
X3225000Y4335000D02*
D03*
Y4235000D02*
D03*
Y4135000D02*
D03*
Y4035000D02*
D03*
Y3935000D02*
D03*
Y3835000D02*
D03*
Y3735000D02*
D03*
Y3635000D02*
D03*
X3525000Y4335000D02*
D03*
Y4235000D02*
D03*
Y4135000D02*
D03*
Y4035000D02*
D03*
Y3935000D02*
D03*
Y3835000D02*
D03*
Y3735000D02*
D03*
Y3635000D02*
D03*
X2180000Y4920000D02*
D03*
X2280000D02*
D03*
X1980000Y4915000D02*
D03*
X2080000D02*
D03*
X1775000Y4920000D02*
D03*
X1875000D02*
D03*
X1535000Y4915000D02*
D03*
X1635000D02*
D03*
X1300000Y4910000D02*
D03*
X1400000D02*
D03*
D19*
X3545000Y2955000D02*
D03*
Y2855000D02*
D03*
Y2755000D02*
D03*
Y2655000D02*
D03*
Y2555000D02*
D03*
Y2455000D02*
D03*
Y2355000D02*
D03*
Y2255000D02*
D03*
Y2155000D02*
D03*
Y2055000D02*
D03*
Y1955000D02*
D03*
Y1855000D02*
D03*
X3230000Y2955000D02*
D03*
Y2855000D02*
D03*
Y2755000D02*
D03*
Y2655000D02*
D03*
Y2555000D02*
D03*
Y2455000D02*
D03*
Y2355000D02*
D03*
Y2255000D02*
D03*
Y2155000D02*
D03*
Y2055000D02*
D03*
Y1955000D02*
D03*
Y1855000D02*
D03*
X2285000Y2955000D02*
D03*
Y2855000D02*
D03*
Y2755000D02*
D03*
Y2655000D02*
D03*
Y2555000D02*
D03*
Y2455000D02*
D03*
Y2355000D02*
D03*
Y2255000D02*
D03*
Y2155000D02*
D03*
Y2055000D02*
D03*
Y1955000D02*
D03*
Y1855000D02*
D03*
X5750000Y2955000D02*
D03*
Y2855000D02*
D03*
Y2755000D02*
D03*
Y2655000D02*
D03*
Y2555000D02*
D03*
Y2455000D02*
D03*
Y2355000D02*
D03*
Y2255000D02*
D03*
Y2155000D02*
D03*
Y2055000D02*
D03*
Y1955000D02*
D03*
Y1855000D02*
D03*
X4805000Y2955000D02*
D03*
Y2855000D02*
D03*
Y2755000D02*
D03*
Y2655000D02*
D03*
Y2555000D02*
D03*
Y2455000D02*
D03*
Y2355000D02*
D03*
Y2255000D02*
D03*
Y2155000D02*
D03*
Y2055000D02*
D03*
Y1955000D02*
D03*
Y1855000D02*
D03*
X4490000Y2955000D02*
D03*
Y2855000D02*
D03*
Y2755000D02*
D03*
Y2655000D02*
D03*
Y2555000D02*
D03*
Y2455000D02*
D03*
Y2355000D02*
D03*
Y2255000D02*
D03*
Y2155000D02*
D03*
Y2055000D02*
D03*
Y1955000D02*
D03*
Y1855000D02*
D03*
X1210000Y4705000D02*
D03*
Y4805000D02*
D03*
D20*
X2830000Y4800000D02*
D03*
X3130000D02*
D03*
D21*
X2815000Y3451000D02*
D03*
X4562000Y3610000D02*
D03*
X6720000Y2790000D02*
D03*
X3072000Y2555000D02*
D03*
X3630000Y2155000D02*
D03*
X3185000Y2505000D02*
D03*
X2965000Y2755000D02*
D03*
X2795000Y2030000D02*
D03*
X7063000Y2025000D02*
D03*
X6889000Y3640000D02*
D03*
X3298000Y3542000D02*
D03*
X3966472Y4419528D02*
D03*
X5647000Y2021000D02*
D03*
X5210000Y2040000D02*
D03*
X4465000Y4140000D02*
D03*
X4069000Y2394000D02*
D03*
X4510000Y4800000D02*
D03*
X5230000Y3785000D02*
D03*
X7247000Y1950000D02*
D03*
X6506000Y2550000D02*
D03*
X7288000Y2050000D02*
D03*
X7285000Y2746000D02*
D03*
X5597000Y1850000D02*
D03*
X6405000Y2820000D02*
D03*
X6480000Y2790000D02*
D03*
X2855000Y2305000D02*
D03*
X4058000Y3785000D02*
D03*
X4347000Y4268000D02*
D03*
X6480000Y4555000D02*
D03*
X3445000D02*
D03*
X3697000Y4374000D02*
D03*
%TF.MD5,6B90A2A158367ED41EE56ABE363F5A6A*%
M02*
