G04 Layer_Physical_Order=2*
G04 Layer_Color=16711680*
%FSLAX26Y26*%
%MOIN*%
%TF.FileFunction,Copper,L2,Bot,Signal*%
%TF.Part,Single*%
G01*
G75*
%TA.AperFunction,Conductor*%
%ADD10C,0.010000*%
%TA.AperFunction,ComponentPad*%
%ADD13C,0.059055*%
%ADD14R,0.059055X0.059055*%
%ADD15R,0.059055X0.059055*%
%ADD16C,0.055118*%
%TA.AperFunction,ViaPad*%
%ADD17C,0.050000*%
D10*
X2873000Y4353000D02*
Y4820000D01*
Y4335000D02*
Y4353000D01*
X2900000Y4380000D01*
X2855000Y4335000D02*
X2873000Y4353000D01*
X6720000Y2790000D02*
X7180000D01*
X6480000D02*
X6720000D01*
X3635000Y3410000D02*
X4490000Y2555000D01*
X2560000Y3410000D02*
X3635000D01*
X2510000Y3460000D02*
X2560000Y3410000D01*
X2510000Y3460000D02*
Y3660000D01*
X2535000Y3685000D01*
X2805000D01*
X2855000Y3735000D01*
X2815000Y3451000D02*
X3857112D01*
X4453112Y2855000D01*
X4490000D01*
X4975000Y3935000D02*
X5020000Y3890000D01*
X6435000D01*
X6480000Y3935000D01*
X3728000D02*
X3885000D01*
X3683000Y3890000D02*
X3728000Y3935000D01*
X3270000Y3890000D02*
X3683000D01*
X3225000Y3935000D02*
X3270000Y3890000D01*
X2510000Y3980000D02*
X2555000Y3935000D01*
X2510000Y3980000D02*
Y4060000D01*
X2530000Y4080000D01*
X2689000D01*
X2734000Y4035000D01*
X2855000D01*
X2258724Y2881276D02*
X2285000Y2855000D01*
X2220472Y2900000D02*
X2258724Y2881276D01*
X2220472Y2900000D02*
Y4011472D01*
X2489000Y4280000D01*
X2758208D01*
X2803208Y4235000D01*
X2855000D01*
X5275000Y4335000D02*
X5320000Y4380000D01*
X6735000D01*
X6780000Y4335000D01*
X5210472Y4399528D02*
X5275000Y4335000D01*
X4249528Y4399528D02*
X5210472D01*
X4185000Y4335000D02*
X4249528Y4399528D01*
X2900000Y4380000D02*
X3480000D01*
X3525000Y4335000D01*
X2555000D02*
X2743472D01*
X2788000Y4290472D01*
X4289472D01*
X4307000Y4308000D01*
X4881000D01*
X4952528Y4379528D01*
X5010472D01*
X5081000Y4309000D01*
X5209000D01*
X5233000Y4285000D01*
X6525000D01*
X6721000Y4089000D01*
X7480000D01*
X7525000Y4044000D01*
Y2960000D02*
Y4044000D01*
X7505000Y2940000D02*
X7525000Y2960000D01*
X7230000Y2940000D02*
X7505000D01*
X7180000Y2990000D02*
X7230000Y2940000D01*
X2555000Y4235000D02*
X2600000Y4190000D01*
X3180000D01*
X3225000Y4235000D01*
X7180000Y3290000D02*
X7225000Y3335000D01*
Y3880000D01*
X7120000Y3985000D02*
X7225000Y3880000D01*
X6630000Y3985000D02*
X7120000D01*
X6480000Y4135000D02*
X6630000Y3985000D01*
X4975000Y4135000D02*
X5020000Y4090000D01*
X6435000D01*
X6480000Y4135000D01*
X3885000D02*
X3930000Y4090000D01*
X4930000D01*
X4975000Y4135000D01*
X7113000Y3257000D02*
X7180000Y3190000D01*
X7113000Y3257000D02*
Y3798000D01*
X7021000Y3890000D02*
X7113000Y3798000D01*
X6625000Y3890000D02*
X7021000D01*
X6480000Y4035000D02*
X6625000Y3890000D01*
X4975000Y4035000D02*
X5020000Y3990000D01*
X6435000D01*
X6480000Y4035000D01*
X2555000D02*
X2600000Y3990000D01*
X2995000D01*
X3040000Y4035000D01*
X3225000D01*
X3270000Y3990000D01*
X3840000D01*
X3885000Y4035000D01*
X4492000Y3680000D02*
X4562000Y3610000D01*
X3401000Y3680000D02*
X4492000D01*
X3296000Y3785000D02*
X3401000Y3680000D01*
X2605000Y3785000D02*
X3296000D01*
X2555000Y3735000D02*
X2605000Y3785000D01*
X4975000Y3635000D02*
X5020000Y3590000D01*
X6435000D01*
X6480000Y3635000D01*
X4907020Y3567020D02*
X4975000Y3635000D01*
X3952980Y3567020D02*
X4907020D01*
X3885000Y3635000D02*
X3952980Y3567020D01*
X2555000Y3635000D02*
X2600000Y3590000D01*
X3180000D01*
X3225000Y3635000D01*
X3270000Y3590000D01*
X3840000D01*
X3885000Y3635000D01*
X7430000Y3040000D02*
X7480000Y2990000D01*
X7090000Y3040000D02*
X7430000D01*
X6955000Y2905000D02*
X7090000Y3040000D01*
X4855000Y2905000D02*
X6955000D01*
X4805000Y2855000D02*
X4855000Y2905000D01*
X3072000Y2555000D02*
X3230000D01*
X7480000Y1850000D02*
X7531000D01*
X7569000Y1888000D01*
Y2786000D01*
X7520000Y2835000D02*
X7569000Y2786000D01*
X7435000Y2835000D02*
X7520000D01*
X7435000Y2519528D02*
Y2835000D01*
Y2519528D02*
X7460000Y2494528D01*
X7500000D01*
X7524528Y2470000D01*
Y2329528D02*
Y2470000D01*
X7500000Y2305000D02*
X7524528Y2329528D01*
X6515000Y2305000D02*
X7500000D01*
X6465000Y2255000D02*
X6515000Y2305000D01*
X5750000Y2255000D02*
X6465000D01*
X3545000Y1955000D02*
X3690000Y2100000D01*
X5130000D01*
X5150000Y2120000D01*
X5290000D01*
X5310000Y2100000D01*
X7430000D01*
X7480000Y2150000D01*
X7435000Y2205000D02*
X7480000Y2250000D01*
X3595000Y2205000D02*
X7435000D01*
X3545000Y2255000D02*
X3595000Y2205000D01*
X3545000Y2555000D02*
X4221000D01*
X4466000Y2310000D01*
X5832000D01*
X5922000Y2400000D01*
X7430000D01*
X7480000Y2350000D01*
X7303000Y2450000D02*
X7480000D01*
X7258000Y2495000D02*
X7303000Y2450000D01*
X7135000Y2495000D02*
X7258000D01*
X7106000Y2466000D02*
X7135000Y2495000D01*
X5892000Y2466000D02*
X7106000D01*
X5836000Y2410000D02*
X5892000Y2466000D01*
X4445000Y2410000D02*
X5836000D01*
X4000000Y2855000D02*
X4445000Y2410000D01*
X3545000Y2855000D02*
X4000000D01*
X6470000Y1950000D02*
X7180000D01*
X6465000Y1955000D02*
X6470000Y1950000D01*
X5750000Y1955000D02*
X6465000D01*
X3630000Y2155000D02*
X4490000D01*
X3490000Y3970000D02*
X3525000Y3935000D01*
X3255000Y3970000D02*
X3490000D01*
X3240000Y3985000D02*
X3255000Y3970000D01*
X3158000Y3985000D02*
X3240000D01*
X3058000Y3885000D02*
X3158000Y3985000D01*
X2503000Y3885000D02*
X3058000D01*
X2240472Y3622472D02*
X2503000Y3885000D01*
X2240472Y2927528D02*
Y3622472D01*
Y2927528D02*
X2263000Y2905000D01*
X2305000D01*
X2330000Y2880000D01*
Y2820000D02*
Y2880000D01*
X2310000Y2800000D02*
X2330000Y2820000D01*
X2260000Y2800000D02*
X2310000D01*
X2240000Y2780000D02*
X2260000Y2800000D01*
X2240000Y1900000D02*
Y2780000D01*
Y1900000D02*
X2285000Y1855000D01*
Y2455000D02*
X3135000D01*
X3185000Y2505000D01*
X2285000Y2755000D02*
X2965000D01*
X2795000Y2030000D02*
X2920000Y1905000D01*
X4440000D01*
X4490000Y1855000D01*
X4651000Y2909000D02*
X4805000Y2755000D01*
X4456000Y2909000D02*
X4651000D01*
X4445000Y2920000D02*
X4456000Y2909000D01*
X4445000Y2920000D02*
Y2980000D01*
X4473000Y3008000D01*
X6335000D01*
X6929000Y3602000D01*
Y3686000D01*
X6780000Y3835000D02*
X6929000Y3686000D01*
X3230000Y1855000D02*
X3294528Y1790472D01*
X5476010D01*
X5687000Y2001462D01*
X7039462D01*
X7063000Y2025000D01*
X6791000Y3542000D02*
X6889000Y3640000D01*
X3298000Y3542000D02*
X6791000D01*
X3966472Y4419528D02*
X6764472D01*
X6824528Y4359472D01*
Y4279528D02*
Y4359472D01*
X6780000Y4235000D02*
X6824528Y4279528D01*
X4805000Y1855000D02*
X4965000D01*
X5190000Y2080000D01*
X5250000D01*
X5309000Y2021000D01*
X5647000D01*
X4980472Y1810472D02*
X5210000Y2040000D01*
X3589528Y1810472D02*
X4980472D01*
X3545000Y1855000D02*
X3589528Y1810472D01*
X5150000Y4135000D02*
X5275000D01*
X5102000Y4183000D02*
X5150000Y4135000D01*
X4601000Y4183000D02*
X5102000D01*
X4558000Y4140000D02*
X4601000Y4183000D01*
X4465000Y4140000D02*
X4558000D01*
X3606000Y2394000D02*
X4069000D01*
X3545000Y2455000D02*
X3606000Y2394000D01*
X3130000Y4800000D02*
X4510000D01*
X4975000Y3735000D02*
X5180000D01*
X5230000Y3785000D01*
X2025000Y4800000D02*
X2830000D01*
X2020000Y4805000D02*
X2025000Y4800000D01*
X1210000Y4805000D02*
X2020000D01*
X7247000Y1950000D02*
X7480000D01*
X6501000Y2555000D02*
X6506000Y2550000D01*
X5750000Y2555000D02*
X6501000D01*
X4805000D02*
X4855000Y2605000D01*
X7233214D01*
X7325000Y2696786D01*
Y2771888D01*
X7443112Y2890000D01*
X7480000D01*
X7288000Y2050000D02*
X7480000D01*
X7281000Y2742000D02*
X7285000Y2746000D01*
X5863000Y2742000D02*
X7281000D01*
X5750000Y2855000D02*
X5863000Y2742000D01*
X6588000Y2550000D02*
X7180000D01*
X6546000Y2508000D02*
X6588000Y2550000D01*
X4445000Y2508000D02*
X6546000D01*
X4053000Y2900000D02*
X4445000Y2508000D01*
X3520000Y2900000D02*
X4053000D01*
X3500000Y2880000D02*
X3520000Y2900000D01*
X3500000Y2720000D02*
Y2880000D01*
Y2720000D02*
X3520000Y2700000D01*
X3570000D01*
X3590000Y2680000D01*
Y2635000D02*
Y2680000D01*
X3560000Y2605000D02*
X3590000Y2635000D01*
X2335000Y2605000D02*
X3560000D01*
X2285000Y2555000D02*
X2335000Y2605000D01*
X7480000Y2790000D02*
X7544528Y2725472D01*
Y1939528D02*
Y2725472D01*
X7500000Y1895000D02*
X7544528Y1939528D01*
X6364000Y1895000D02*
X7500000D01*
X6229000Y1760000D02*
X6364000Y1895000D01*
X5687000Y1760000D02*
X6229000D01*
X5597000Y1850000D02*
X5687000Y1760000D01*
X4805000Y2055000D02*
X5115000D01*
X5160000Y2100000D01*
X5261462D01*
X5300000Y2061462D01*
X5669000D01*
X5675462Y2055000D01*
X5750000D01*
X6405000Y2820000D02*
X6440000Y2855000D01*
X7145000D01*
X7180000Y2890000D01*
X2855000Y2305000D02*
X4440000D01*
X4490000Y2255000D01*
X3525000Y3835000D02*
X3657000D01*
X3705000Y3883000D01*
X3960000D01*
X4058000Y3785000D01*
X2842830Y2055000D02*
X3230000D01*
X2827000Y2070830D02*
X2842830Y2055000D01*
X2772830Y2070830D02*
X2827000D01*
X2757000Y2055000D02*
X2772830Y2070830D01*
X2285000Y2055000D02*
X2757000D01*
X3885000Y4035000D02*
X3930000Y3990000D01*
X4930000D01*
X4975000Y4035000D01*
X3225000Y4135000D02*
X3270000Y4090000D01*
X3840000D01*
X3885000Y4135000D01*
X2555000D02*
X2683000D01*
X2728000Y4090000D01*
X3180000D01*
X3225000Y4135000D01*
Y4235000D02*
X3270000Y4190000D01*
X3840000D01*
X3885000Y4235000D01*
X4603000D02*
X4975000D01*
X4558000Y4190000D02*
X4603000Y4235000D01*
X3930000Y4190000D02*
X4558000D01*
X3885000Y4235000D02*
X3930000Y4190000D01*
X4975000Y4235000D02*
X5102000D01*
X5147000Y4190000D01*
X6435000D01*
X6480000Y4235000D01*
X3225000Y3835000D02*
X3352000D01*
X3397000Y3790000D01*
X3840000D01*
X3885000Y3835000D01*
X5203000Y4235000D02*
X5275000D01*
X5158000Y4280000D02*
X5203000Y4235000D01*
X4359000Y4280000D02*
X5158000D01*
X4347000Y4268000D02*
X4359000Y4280000D01*
X3445000Y4555000D02*
X6480000D01*
X3697000Y4374000D02*
X3805000Y4482000D01*
X6783000D01*
X6844528Y4420472D01*
Y4199528D02*
Y4420472D01*
X6780000Y4135000D02*
X6844528Y4199528D01*
X3980306Y4335000D02*
X4185000D01*
X3935306Y4380000D02*
X3980306Y4335000D01*
X3784154Y4380000D02*
X3935306D01*
X3737604Y4333450D02*
X3784154Y4380000D01*
X3659154Y4333450D02*
X3737604D01*
X3657604Y4335000D02*
X3659154Y4333450D01*
X3525000Y4335000D02*
X3657604D01*
X4930000Y3890000D02*
X4975000Y3935000D01*
X4057000Y3890000D02*
X4930000D01*
X4012000Y3935000D02*
X4057000Y3890000D01*
X3885000Y3935000D02*
X4012000D01*
X1980000Y4915000D02*
X2080000D01*
X2855000Y4335000D02*
X2873000D01*
X2850000Y4843000D02*
X2873000Y4820000D01*
X1467000Y4843000D02*
X2850000D01*
X1400000Y4910000D02*
X1467000Y4843000D01*
X1535000Y4915000D02*
X1635000D01*
X1300000Y4910000D02*
X1400000D01*
X1775000Y4920000D02*
X1875000D01*
X2180000D02*
X2280000D01*
X4805000Y2355000D02*
X5750000D01*
X4490000D02*
X4805000D01*
Y2655000D02*
X5750000D01*
X4490000D02*
X4805000D01*
Y2955000D02*
X5750000D01*
X4490000D02*
X4805000D01*
X3230000Y2055000D02*
X3545000D01*
X2285000Y2355000D02*
X3230000D01*
X3545000D01*
X2285000Y2655000D02*
X3230000D01*
X3545000D01*
X2285000Y2955000D02*
X3230000D01*
X3545000D01*
X4490000Y2055000D02*
X4805000D01*
D13*
X7180000Y2550000D02*
D03*
Y2450000D02*
D03*
Y2350000D02*
D03*
Y2250000D02*
D03*
Y2150000D02*
D03*
Y2050000D02*
D03*
Y1950000D02*
D03*
Y1850000D02*
D03*
X7480000Y2550000D02*
D03*
Y2450000D02*
D03*
Y2350000D02*
D03*
Y2250000D02*
D03*
Y2150000D02*
D03*
Y2050000D02*
D03*
Y1950000D02*
D03*
X7180000Y3490000D02*
D03*
Y3390000D02*
D03*
Y3290000D02*
D03*
Y3190000D02*
D03*
Y3090000D02*
D03*
Y2990000D02*
D03*
Y2890000D02*
D03*
Y2790000D02*
D03*
X7480000Y3490000D02*
D03*
Y3390000D02*
D03*
Y3290000D02*
D03*
Y3190000D02*
D03*
Y3090000D02*
D03*
Y2990000D02*
D03*
Y2890000D02*
D03*
X2555000Y4335000D02*
D03*
Y4235000D02*
D03*
Y4135000D02*
D03*
Y4035000D02*
D03*
Y3935000D02*
D03*
Y3835000D02*
D03*
Y3735000D02*
D03*
Y3635000D02*
D03*
X2855000Y4335000D02*
D03*
Y4235000D02*
D03*
Y4135000D02*
D03*
Y4035000D02*
D03*
Y3935000D02*
D03*
Y3835000D02*
D03*
Y3735000D02*
D03*
X3885000Y4335000D02*
D03*
Y4235000D02*
D03*
Y4135000D02*
D03*
Y4035000D02*
D03*
Y3935000D02*
D03*
Y3835000D02*
D03*
Y3735000D02*
D03*
Y3635000D02*
D03*
X4185000Y4335000D02*
D03*
Y4235000D02*
D03*
Y4135000D02*
D03*
Y4035000D02*
D03*
Y3935000D02*
D03*
Y3835000D02*
D03*
Y3735000D02*
D03*
X3545000Y2955000D02*
D03*
Y2855000D02*
D03*
Y2755000D02*
D03*
Y2655000D02*
D03*
Y2555000D02*
D03*
Y2455000D02*
D03*
Y2355000D02*
D03*
Y2255000D02*
D03*
Y2155000D02*
D03*
Y2055000D02*
D03*
Y1955000D02*
D03*
X3230000Y2955000D02*
D03*
Y2855000D02*
D03*
Y2755000D02*
D03*
Y2655000D02*
D03*
Y2555000D02*
D03*
Y2455000D02*
D03*
Y2355000D02*
D03*
Y2255000D02*
D03*
Y2155000D02*
D03*
Y2055000D02*
D03*
Y1955000D02*
D03*
X2285000Y2955000D02*
D03*
Y2855000D02*
D03*
Y2755000D02*
D03*
Y2655000D02*
D03*
Y2555000D02*
D03*
Y2455000D02*
D03*
Y2355000D02*
D03*
Y2255000D02*
D03*
Y2155000D02*
D03*
Y2055000D02*
D03*
Y1955000D02*
D03*
X5750000Y2955000D02*
D03*
Y2855000D02*
D03*
Y2755000D02*
D03*
Y2655000D02*
D03*
Y2555000D02*
D03*
Y2455000D02*
D03*
Y2355000D02*
D03*
Y2255000D02*
D03*
Y2155000D02*
D03*
Y2055000D02*
D03*
Y1955000D02*
D03*
X4805000Y2955000D02*
D03*
Y2855000D02*
D03*
Y2755000D02*
D03*
Y2655000D02*
D03*
Y2555000D02*
D03*
Y2455000D02*
D03*
Y2355000D02*
D03*
Y2255000D02*
D03*
Y2155000D02*
D03*
Y2055000D02*
D03*
Y1955000D02*
D03*
X4490000Y2955000D02*
D03*
Y2855000D02*
D03*
Y2755000D02*
D03*
Y2655000D02*
D03*
Y2555000D02*
D03*
Y2455000D02*
D03*
Y2355000D02*
D03*
Y2255000D02*
D03*
Y2155000D02*
D03*
Y2055000D02*
D03*
Y1955000D02*
D03*
X4975000Y4335000D02*
D03*
Y4235000D02*
D03*
Y4135000D02*
D03*
Y4035000D02*
D03*
Y3935000D02*
D03*
Y3835000D02*
D03*
Y3735000D02*
D03*
Y3635000D02*
D03*
X5275000Y4335000D02*
D03*
Y4235000D02*
D03*
Y4135000D02*
D03*
Y4035000D02*
D03*
Y3935000D02*
D03*
Y3835000D02*
D03*
Y3735000D02*
D03*
X6480000Y4335000D02*
D03*
Y4235000D02*
D03*
Y4135000D02*
D03*
Y4035000D02*
D03*
Y3935000D02*
D03*
Y3835000D02*
D03*
Y3735000D02*
D03*
Y3635000D02*
D03*
X6780000Y4335000D02*
D03*
Y4235000D02*
D03*
Y4135000D02*
D03*
Y4035000D02*
D03*
Y3935000D02*
D03*
Y3835000D02*
D03*
Y3735000D02*
D03*
X3225000Y4335000D02*
D03*
Y4235000D02*
D03*
Y4135000D02*
D03*
Y4035000D02*
D03*
Y3935000D02*
D03*
Y3835000D02*
D03*
Y3735000D02*
D03*
Y3635000D02*
D03*
X3525000Y4335000D02*
D03*
Y4235000D02*
D03*
Y4135000D02*
D03*
Y4035000D02*
D03*
Y3935000D02*
D03*
Y3835000D02*
D03*
Y3735000D02*
D03*
X2280000Y4920000D02*
D03*
X2080000Y4915000D02*
D03*
X1875000Y4920000D02*
D03*
X1635000Y4915000D02*
D03*
X1400000Y4910000D02*
D03*
X1210000Y4805000D02*
D03*
D14*
X7480000Y1850000D02*
D03*
Y2790000D02*
D03*
X2855000Y3635000D02*
D03*
X4185000D02*
D03*
X5275000D02*
D03*
X6780000D02*
D03*
X3525000D02*
D03*
X2180000Y4920000D02*
D03*
X1980000Y4915000D02*
D03*
X1775000Y4920000D02*
D03*
X1535000Y4915000D02*
D03*
X1300000Y4910000D02*
D03*
D15*
X3545000Y1855000D02*
D03*
X3230000D02*
D03*
X2285000D02*
D03*
X5750000D02*
D03*
X4805000D02*
D03*
X4490000D02*
D03*
X1210000Y4705000D02*
D03*
D16*
X2830000Y4800000D02*
D03*
X3130000D02*
D03*
D17*
X2815000Y3451000D02*
D03*
X4562000Y3610000D02*
D03*
X6720000Y2790000D02*
D03*
X3072000Y2555000D02*
D03*
X3630000Y2155000D02*
D03*
X3185000Y2505000D02*
D03*
X2965000Y2755000D02*
D03*
X2795000Y2030000D02*
D03*
X7063000Y2025000D02*
D03*
X6889000Y3640000D02*
D03*
X3298000Y3542000D02*
D03*
X3966472Y4419528D02*
D03*
X5647000Y2021000D02*
D03*
X5210000Y2040000D02*
D03*
X4465000Y4140000D02*
D03*
X4069000Y2394000D02*
D03*
X4510000Y4800000D02*
D03*
X5230000Y3785000D02*
D03*
X7247000Y1950000D02*
D03*
X6506000Y2550000D02*
D03*
X7288000Y2050000D02*
D03*
X7285000Y2746000D02*
D03*
X5597000Y1850000D02*
D03*
X6405000Y2820000D02*
D03*
X6480000Y2790000D02*
D03*
X2855000Y2305000D02*
D03*
X4058000Y3785000D02*
D03*
X4347000Y4268000D02*
D03*
X6480000Y4555000D02*
D03*
X3445000D02*
D03*
X3697000Y4374000D02*
D03*
%TF.MD5,A436AB89A196AB15AAB5508752B35D31*%
M02*
