G04 Layer_Physical_Order=2*
G04 Layer_Color=16711680*
%FSLAX26Y26*%
%MOIN*%
%TF.FileFunction,Copper,L2,Bot,Signal*%
%TF.Part,Single*%
G01*
G75*
%TA.AperFunction,NonConductor*%
%ADD26C,0.030000*%
%ADD27C,0.010000*%
%TA.AperFunction,ComponentPad*%
%ADD35C,0.059055*%
%ADD36R,0.059055X0.059055*%
%ADD37R,0.059055X0.059055*%
%ADD38C,0.055118*%
%TA.AperFunction,ViaPad*%
%ADD39C,0.060000*%
%TA.AperFunction,ComponentPad*%
%ADD40R,0.059000X0.059000*%
%ADD41C,0.059000*%
%ADD42O,0.100000X0.075000*%
%ADD43O,0.075000X0.100000*%
%ADD44C,0.065000*%
%ADD45C,0.070000*%
%TA.AperFunction,ViaPad*%
%ADD46C,0.050000*%
%ADD47C,0.019685*%
%ADD48C,0.040000*%
%TA.AperFunction,NonConductor*%
%ADD49R,0.075000X0.105000*%
D26*
X1415000Y3705000D02*
X2113425D01*
Y3805000D01*
X1180000Y4250000D02*
X1550000D01*
Y3805000D02*
Y4250000D01*
X1285000Y4225000D02*
Y4265000D01*
X1185000Y4065000D02*
X1415000D01*
Y3705000D02*
Y4065000D01*
X1550000Y3805000D02*
X1916575D01*
D27*
Y3805000D01*
X5583096Y2560000D02*
X5638096Y2505000D01*
X6128096D01*
X6183096Y2560000D01*
X4465000D02*
X4520000Y2615000D01*
X5010000D01*
X5065000Y2560000D01*
X7246190Y2615000D02*
X7301190Y2560000D01*
X6756190Y2615000D02*
X7246190D01*
X6701190Y2560000D02*
X6756190Y2615000D01*
X6128096Y4135000D02*
X6183096Y4080000D01*
X5638096Y4135000D02*
X6128096D01*
X5583096Y4080000D02*
X5638096Y4135000D01*
X8364286Y2615000D02*
X8419286Y2560000D01*
X7874286Y2615000D02*
X8364286D01*
X7819286Y2560000D02*
X7874286Y2615000D01*
X4465000Y4080000D02*
X4520000Y4025000D01*
X5010000D01*
X5065000Y4080000D01*
X7819286D02*
X8042286Y4303000D01*
X8196286D01*
X8419286Y4080000D01*
X5728096Y2615000D02*
X5783096Y2560000D01*
X5220000Y2615000D02*
X5728096D01*
X5165000Y2560000D02*
X5220000Y2615000D01*
X5983096Y4080000D02*
X6133096Y3930000D01*
X6951190D01*
X7101190Y4080000D01*
X8069286Y2410000D02*
X8219286Y2560000D01*
X7251190Y2410000D02*
X8069286D01*
X7101190Y2560000D02*
X7251190Y2410000D01*
X9072000Y4278000D02*
X9390000Y3960000D01*
X8617286Y4278000D02*
X9072000D01*
X8419286Y4080000D02*
X8617286Y4278000D01*
X9232214Y4017786D02*
X9390000Y3860000D01*
X8757072Y4017786D02*
X9232214D01*
X8519286Y3780000D02*
X8757072Y4017786D01*
X5883096Y4080000D02*
X6099096Y3864000D01*
X6199096D01*
X6283096Y3780000D01*
X5877096Y2766000D02*
X6083096Y2560000D01*
X4965000Y2766000D02*
X5877096D01*
X5733096Y3930000D02*
X5883096Y4080000D01*
X5315000Y3930000D02*
X5733096D01*
X5165000Y3780000D02*
X5315000Y3930000D01*
X9075000Y2465000D02*
X9130000Y2410000D01*
Y1610000D02*
Y2410000D01*
X9070000Y1550000D02*
X9130000Y1610000D01*
X8419286Y2560000D02*
X8474286Y2505000D01*
X8574000D01*
X8609000Y2540000D01*
X9100000D01*
X9160000Y2480000D01*
Y1359000D02*
Y2480000D01*
X9096000Y1295000D02*
X9160000Y1359000D01*
X9015000Y1295000D02*
X9096000D01*
X9015000D02*
Y1750000D01*
X9070000D01*
X8119286Y4080000D02*
X8269286Y3930000D01*
X8369286D01*
X8519286Y3780000D01*
X7326190Y3855000D02*
X7401190Y3780000D01*
Y2260000D02*
X7456190Y2315000D01*
X8464286D01*
X8519286Y2260000D01*
X7001190Y2560000D02*
X7084190Y2477000D01*
X4500000Y4145000D02*
X4565000Y4080000D01*
X4400000Y4145000D02*
X4500000D01*
X4360000Y4105000D02*
X4400000Y4145000D01*
X4360000Y3585000D02*
X4374882D01*
X9140000Y2795000D02*
X9390000Y3045000D01*
Y3160000D01*
Y3360000D02*
X9445000Y3305000D01*
Y3000000D02*
Y3305000D01*
X9240000Y2795000D02*
X9445000Y3000000D01*
X9016000Y3234000D02*
X9090000Y3160000D01*
X9016000Y3234000D02*
Y3324000D01*
X8835000Y3505000D02*
X9016000Y3324000D01*
X8835000Y3405000D02*
X8963000Y3277000D01*
Y3204000D02*
Y3277000D01*
Y3204000D02*
X9100000Y3067000D01*
X9197000D01*
X9390000Y3260000D01*
X8835000Y3605000D02*
X9060000Y3380000D01*
X9090000Y3360000D02*
Y3380000D01*
X9390000Y3460000D02*
X9495000Y3355000D01*
Y2755000D02*
Y3355000D01*
X9451000Y2711000D02*
X9495000Y2755000D01*
X8725000Y2711000D02*
X9451000D01*
X8685000Y2751000D02*
X8725000Y2711000D01*
X8685000Y2751000D02*
Y3155000D01*
X8835000Y3305000D01*
Y3705000D02*
X8945000D01*
X9090000Y3560000D01*
X8835000Y3805000D02*
X8880000Y3760000D01*
X9090000D01*
X8835000Y3905000D02*
X8890000Y3960000D01*
X9090000D01*
X4665000Y2560000D02*
X4851000Y2374000D01*
X8984000D01*
X9075000Y2465000D01*
X4410000Y3713000D02*
Y3980000D01*
Y3713000D02*
X5901000D01*
X5938000Y3676000D01*
Y3126000D02*
Y3676000D01*
Y3126000D02*
X6000000Y3064000D01*
X7246000D01*
X7469000Y2841000D01*
X8238286D01*
X8519286Y2560000D01*
X6283096Y2260000D02*
X6547096Y1996000D01*
X7350000D01*
X7401190Y2047190D01*
Y2260000D01*
X8519286D02*
X8714286Y2065000D01*
X9075000D01*
X7322190Y3855000D02*
X7401190Y3780000D01*
X7322190Y3855000D02*
Y3859000D01*
X6283096Y3780000D02*
X6362096Y3859000D01*
X7401190Y3780000D02*
X7551190Y3930000D01*
X7969286D01*
X8119286Y4080000D01*
X6642190Y2501000D02*
X6701190Y2560000D01*
X6242096Y2501000D02*
X6642190D01*
X6183096Y2560000D02*
X6242096Y2501000D01*
X7764286Y2505000D02*
X7819286Y2560000D01*
X7356190Y2505000D02*
X7764286D01*
X7301190Y2560000D02*
X7356190Y2505000D01*
X5528096D02*
X5583096Y2560000D01*
X5120000Y2505000D02*
X5528096D01*
X5065000Y2560000D02*
X5120000Y2505000D01*
X5524096Y4021000D02*
X5583096Y4080000D01*
X5124000Y4021000D02*
X5524096D01*
X5065000Y4080000D02*
X5124000Y4021000D01*
X6646190Y4025000D02*
X6701190Y4080000D01*
X6238096Y4025000D02*
X6646190D01*
X6183096Y4080000D02*
X6238096Y4025000D01*
X7081190Y4300000D02*
X7301190Y4080000D01*
X6921190Y4300000D02*
X7081190D01*
X6701190Y4080000D02*
X6921190Y4300000D01*
X7764286Y4025000D02*
X7819286Y4080000D01*
X7356190Y4025000D02*
X7764286D01*
X7301190Y4080000D02*
X7356190Y4025000D01*
X9060000Y3380000D02*
X9090000D01*
X4360000Y3585000D02*
Y4105000D01*
X6590000Y3855000D02*
X7322190D01*
X7326190D01*
X6362096Y3859000D02*
X7322190D01*
X11999252Y4805000D02*
X12144252D01*
X11744252Y5055000D02*
X12144252D01*
X11744252D02*
Y5168307D01*
X11662992Y5015000D02*
X11704252D01*
X11662992D02*
Y5368307D01*
X11744252D01*
X11849252Y5168307D02*
X11852559Y5165000D01*
X12144252Y4920000D02*
Y5055000D01*
X11852559Y5165000D02*
X11857559Y5170000D01*
X11962559D01*
X11214252Y6875000D02*
Y6970000D01*
X10834252Y6875000D02*
X11214252D01*
X10834252Y6605000D02*
Y6875000D01*
X10344252Y6815000D02*
X10424252D01*
X10344252Y6460000D02*
Y6815000D01*
Y6460000D02*
X10489252D01*
Y6330000D02*
Y6460000D01*
Y6330000D02*
X11064252D01*
Y6435000D01*
X11009252Y6405000D02*
Y6765433D01*
X10669252Y6405000D02*
X11009252D01*
X10424252Y6505000D02*
Y6615000D01*
Y6505000D02*
X10814252D01*
Y6480000D02*
Y6505000D01*
Y6480000D02*
X10889252D01*
X11289252Y6095000D02*
X11514252D01*
Y6690000D01*
Y7270000D01*
X11042402D02*
X11514252D01*
X11042402D02*
Y7750000D01*
X11359252Y6205866D02*
Y6295000D01*
X10524252Y6815000D02*
X10624252D01*
X10524252Y6715000D02*
X10644252D01*
Y6575000D02*
Y6715000D01*
X10709252Y6694567D02*
Y6765000D01*
X10424252Y6715000D02*
Y6765000D01*
X10709252D01*
Y6694567D02*
X10719252D01*
X10424252Y6910000D02*
X10724252D01*
X10424252Y6815000D02*
Y6910000D01*
X11009252Y6765433D02*
X11014252D01*
X10254252Y7675000D02*
X10936102D01*
X10254252Y6420000D02*
Y7675000D01*
Y6420000D02*
X10444252D01*
Y6080000D02*
Y6420000D01*
Y6080000D02*
X10464252Y6060000D01*
X10719252D01*
X10374252Y6030866D02*
X10420118Y5985000D01*
X11054252D01*
Y6095000D01*
X11154252Y7765000D02*
X11484252D01*
Y7565000D02*
Y7765000D01*
Y7565000D02*
X11749252D01*
Y6490000D02*
Y7565000D01*
X11639252Y6490000D02*
X11749252D01*
X11054252Y6095000D02*
X11289252D01*
X11674252Y6690000D02*
Y6755000D01*
X11514252Y6690000D02*
X11674252D01*
X12204252Y6605000D02*
Y7775000D01*
X11864252Y6605000D02*
X12204252D01*
X10669252Y6205866D02*
X11359252D01*
X11960000Y1890000D02*
X12265000Y2195000D01*
Y3110000D01*
X12215000Y3160000D02*
X12265000Y3110000D01*
X11915000Y1735000D02*
X11960000Y1690000D01*
X11915000Y1735000D02*
Y1773614D01*
X11895472Y1793142D02*
X11915000Y1773614D01*
X11895472Y1793142D02*
Y1935000D01*
X11915000Y1954528D01*
Y2360000D01*
X11970000Y2415000D01*
X12150000D01*
X12165000Y2430000D01*
Y2570000D01*
X12220000Y2625000D01*
X11960000Y1590000D02*
X12005000Y1635000D01*
Y1810000D01*
X11980000Y1835000D02*
X12005000Y1810000D01*
X11950000Y1835000D02*
X11980000D01*
X11915472Y1869528D02*
X11950000Y1835000D01*
X11915472Y1869528D02*
Y1915472D01*
X11938000Y1938000D01*
X11977000D01*
X12220000Y2181000D01*
Y2365000D01*
X12070000Y3480000D02*
X12115000Y3525000D01*
X12070000Y3305000D02*
Y3480000D01*
Y3305000D02*
X12115000Y3260000D01*
X12070000Y3215000D02*
X12115000Y3260000D01*
X12070000Y3040000D02*
Y3215000D01*
Y3040000D02*
X12115000Y2995000D01*
X12120000Y2725000D02*
X12160000Y2765000D01*
Y2950000D01*
X12115000Y2995000D02*
X12160000Y2950000D01*
X12075000Y2680000D02*
X12120000Y2725000D01*
X12075000Y2510000D02*
Y2680000D01*
Y2510000D02*
X12120000Y2465000D01*
X11035000Y1785000D02*
X11285000D01*
X11530000D01*
X11780000D01*
X11285000Y1885000D02*
X11530000D01*
X11780000D01*
X11035000Y1985000D02*
X11285000D01*
X11530000D01*
X11780000D01*
X11035000Y2085000D02*
X11285000D01*
X11530000D01*
X11780000D01*
X11035000Y2185000D02*
X11285000D01*
X11530000D01*
X11780000D01*
X11035000Y2285000D02*
X11285000D01*
X11530000D01*
X11780000D01*
X11285000Y2385000D02*
X11530000D01*
X11780000D01*
X11035000Y2485000D02*
X11285000D01*
X11530000D01*
X11780000D01*
X11035000Y2585000D02*
X11285000D01*
X11530000D01*
X11780000D01*
X11035000Y2685000D02*
X11285000D01*
X11530000D01*
X11780000D01*
X11035000Y2785000D02*
X11285000D01*
X11530000D01*
X11780000D01*
X11035000Y2885000D02*
X11285000D01*
X11530000D01*
X11780000D01*
X11035000Y2985000D02*
X11285000D01*
X11530000D01*
X11780000D01*
X11035000Y3085000D02*
X11285000D01*
X11530000D01*
X11780000D01*
X11035000Y3185000D02*
X11285000D01*
X11530000D01*
X11780000D01*
X11035000Y3285000D02*
X11285000D01*
X11530000D01*
X11780000D01*
X11035000Y3385000D02*
X11285000D01*
X11530000D01*
X11780000D01*
X11285000Y3485000D02*
X11530000D01*
X11780000D01*
X11035000Y3585000D02*
X11285000D01*
X11530000D01*
X11780000D01*
X11285000Y3685000D02*
X11530000D01*
X11780000D01*
X9680000D02*
X9930000D01*
X10180000D01*
X10435000D01*
X9680000Y3585000D02*
X9930000D01*
X10180000D01*
X10435000D01*
X9680000Y3485000D02*
X9930000D01*
X10180000D01*
X9680000Y3385000D02*
X9930000D01*
X10180000D01*
X10435000D01*
X9680000Y3285000D02*
X9930000D01*
X10180000D01*
X10435000D01*
X9680000Y3185000D02*
X9930000D01*
X10180000D01*
X9680000Y3085000D02*
X9930000D01*
X10180000D01*
X10435000D01*
X9680000Y2985000D02*
X9930000D01*
X10180000D01*
X9680000Y2885000D02*
X9930000D01*
X10180000D01*
X10435000D01*
X9680000Y2785000D02*
X9930000D01*
X10180000D01*
X10435000D01*
X9680000Y2685000D02*
X9930000D01*
X10180000D01*
X9680000Y2585000D02*
X9930000D01*
X10180000D01*
X9680000Y2485000D02*
X9930000D01*
X10180000D01*
X9680000Y2385000D02*
X9930000D01*
X10180000D01*
X10435000D01*
X9680000Y2285000D02*
X9930000D01*
X10180000D01*
X10435000D01*
X9680000Y2185000D02*
X9930000D01*
X10180000D01*
X9680000Y2085000D02*
X9930000D01*
X10180000D01*
X10435000D01*
X9680000Y1985000D02*
X9930000D01*
X10180000D01*
X10435000D01*
X9680000Y1885000D02*
X9930000D01*
X10180000D01*
X10435000D01*
X9680000Y1785000D02*
X9930000D01*
X10180000D01*
X11699000Y1085000D02*
Y1330000D01*
Y1580000D01*
X11599000Y1085000D02*
Y1330000D01*
Y1580000D01*
X11499000Y1085000D02*
Y1330000D01*
Y1580000D01*
X11399000Y1085000D02*
Y1330000D01*
Y1580000D01*
X11299000Y1085000D02*
Y1330000D01*
Y1580000D01*
X11199000Y1085000D02*
Y1330000D01*
Y1580000D01*
X11099000Y1085000D02*
Y1330000D01*
Y1580000D01*
X10999000Y1085000D02*
Y1330000D01*
Y1580000D01*
X10899000Y1085000D02*
Y1330000D01*
Y1580000D01*
X10799000Y1085000D02*
Y1330000D01*
Y1580000D01*
X10699000Y1085000D02*
Y1330000D01*
Y1580000D01*
X10599000Y1085000D02*
Y1330000D01*
Y1580000D01*
X10499000Y1085000D02*
Y1330000D01*
Y1580000D01*
X10399000Y1085000D02*
Y1330000D01*
Y1580000D01*
X10299000Y1085000D02*
Y1330000D01*
Y1580000D01*
X10199000Y1085000D02*
Y1330000D01*
Y1580000D01*
X10099000Y1085000D02*
Y1330000D01*
Y1580000D01*
X9999000Y1085000D02*
Y1330000D01*
Y1580000D01*
X9899000Y1085000D02*
Y1330000D01*
Y1580000D01*
X9799000Y1085000D02*
Y1330000D01*
Y1580000D01*
X9785000Y3980000D02*
Y4225000D01*
Y4475000D01*
X9885000Y3980000D02*
Y4225000D01*
Y4475000D01*
X9985000Y3980000D02*
Y4225000D01*
Y4475000D01*
X10085000Y3980000D02*
Y4225000D01*
Y4475000D01*
X10185000Y3980000D02*
Y4225000D01*
Y4475000D01*
X10285000Y3980000D02*
Y4225000D01*
Y4475000D01*
X10385000Y3980000D02*
Y4225000D01*
Y4475000D01*
X10485000Y3980000D02*
Y4225000D01*
Y4475000D01*
X10585000Y3980000D02*
Y4225000D01*
Y4475000D01*
X10685000Y3980000D02*
Y4225000D01*
Y4475000D01*
X10785000Y3980000D02*
Y4225000D01*
Y4475000D01*
X10885000Y3980000D02*
Y4225000D01*
Y4475000D01*
X10985000Y3980000D02*
Y4225000D01*
Y4475000D01*
X11085000Y3980000D02*
Y4225000D01*
Y4475000D01*
X11185000Y3980000D02*
Y4225000D01*
Y4475000D01*
X11285000Y3980000D02*
Y4225000D01*
Y4475000D01*
X11385000Y3980000D02*
Y4225000D01*
Y4475000D01*
X11485000Y3980000D02*
Y4225000D01*
Y4475000D01*
X11585000Y3980000D02*
Y4225000D01*
Y4475000D01*
X11685000Y3980000D02*
Y4225000D01*
Y4475000D01*
X10180000Y1785000D02*
X10435000D01*
X10180000Y2185000D02*
X10435000D01*
X10180000Y2485000D02*
X10435000D01*
X10180000Y2585000D02*
X10435000D01*
X10180000Y2685000D02*
X10435000D01*
X10180000Y2985000D02*
X10435000D01*
X10180000Y3185000D02*
X10435000D01*
X10180000Y3485000D02*
X10435000D01*
X11035000D02*
X11279000D01*
X11035000Y3685000D02*
X11285000D01*
X11035000Y2385000D02*
X11285000D01*
X11035000Y1885000D02*
X11285000D01*
X5143000Y7668000D02*
Y8135000D01*
Y7650000D02*
Y7668000D01*
X5170000Y7695000D01*
X5125000Y7650000D02*
X5143000Y7668000D01*
X8990000Y6105000D02*
X9450000D01*
X8750000D02*
X8990000D01*
X5905000Y6725000D02*
X6760000Y5870000D01*
X4830000Y6725000D02*
X5905000D01*
X4780000Y6775000D02*
X4830000Y6725000D01*
X4780000Y6775000D02*
Y6975000D01*
X4805000Y7000000D01*
X5075000D01*
X5125000Y7050000D01*
X5085000Y6766000D02*
X6127112D01*
X6723112Y6170000D01*
X6760000D01*
X7245000Y7250000D02*
X7290000Y7205000D01*
X8705000D01*
X8750000Y7250000D01*
X5998000D02*
X6155000D01*
X5953000Y7205000D02*
X5998000Y7250000D01*
X5540000Y7205000D02*
X5953000D01*
X5495000Y7250000D02*
X5540000Y7205000D01*
X4780000Y7295000D02*
X4825000Y7250000D01*
X4780000Y7295000D02*
Y7375000D01*
X4800000Y7395000D01*
X4959000D01*
X5004000Y7350000D01*
X5125000D01*
X4528724Y6196276D02*
X4555000Y6170000D01*
X4490472Y6215000D02*
X4528724Y6196276D01*
X4490472Y6215000D02*
Y7326472D01*
X4759000Y7595000D01*
X5028208D01*
X5073208Y7550000D01*
X5125000D01*
X7545000Y7650000D02*
X7590000Y7695000D01*
X9005000D01*
X9050000Y7650000D01*
X7480472Y7714528D02*
X7545000Y7650000D01*
X6519528Y7714528D02*
X7480472D01*
X6455000Y7650000D02*
X6519528Y7714528D01*
X5170000Y7695000D02*
X5750000D01*
X5795000Y7650000D01*
X4825000D02*
X5013472D01*
X5058000Y7605472D01*
X6559472D01*
X6577000Y7623000D01*
X7151000D01*
X7222528Y7694528D01*
X7280472D01*
X7351000Y7624000D01*
X7479000D01*
X7503000Y7600000D01*
X8795000D01*
X8991000Y7404000D01*
X9750000D01*
X9795000Y7359000D01*
Y6275000D02*
Y7359000D01*
X9775000Y6255000D02*
X9795000Y6275000D01*
X9500000Y6255000D02*
X9775000D01*
X9450000Y6305000D02*
X9500000Y6255000D01*
X4825000Y7550000D02*
X4870000Y7505000D01*
X5450000D01*
X5495000Y7550000D01*
X9450000Y6605000D02*
X9495000Y6650000D01*
Y7195000D01*
X9390000Y7300000D02*
X9495000Y7195000D01*
X8900000Y7300000D02*
X9390000D01*
X8750000Y7450000D02*
X8900000Y7300000D01*
X7245000Y7450000D02*
X7290000Y7405000D01*
X8705000D01*
X8750000Y7450000D01*
X6155000D02*
X6200000Y7405000D01*
X7200000D01*
X7245000Y7450000D01*
X9383000Y6572000D02*
X9450000Y6505000D01*
X9383000Y6572000D02*
Y7113000D01*
X9291000Y7205000D02*
X9383000Y7113000D01*
X8895000Y7205000D02*
X9291000D01*
X8750000Y7350000D02*
X8895000Y7205000D01*
X7245000Y7350000D02*
X7290000Y7305000D01*
X8705000D01*
X8750000Y7350000D01*
X4825000D02*
X4870000Y7305000D01*
X5265000D01*
X5310000Y7350000D01*
X5495000D01*
X5540000Y7305000D01*
X6110000D01*
X6155000Y7350000D01*
X6762000Y6995000D02*
X6832000Y6925000D01*
X5671000Y6995000D02*
X6762000D01*
X5566000Y7100000D02*
X5671000Y6995000D01*
X4875000Y7100000D02*
X5566000D01*
X4825000Y7050000D02*
X4875000Y7100000D01*
X7245000Y6950000D02*
X7290000Y6905000D01*
X8705000D01*
X8750000Y6950000D01*
X7177020Y6882020D02*
X7245000Y6950000D01*
X6222980Y6882020D02*
X7177020D01*
X6155000Y6950000D02*
X6222980Y6882020D01*
X4825000Y6950000D02*
X4870000Y6905000D01*
X5450000D01*
X5495000Y6950000D01*
X5540000Y6905000D01*
X6110000D01*
X6155000Y6950000D01*
X9700000Y6355000D02*
X9750000Y6305000D01*
X9360000Y6355000D02*
X9700000D01*
X9225000Y6220000D02*
X9360000Y6355000D01*
X7125000Y6220000D02*
X9225000D01*
X7075000Y6170000D02*
X7125000Y6220000D01*
X5342000Y5870000D02*
X5500000D01*
X9750000Y5165000D02*
X9801000D01*
X9839000Y5203000D01*
Y6101000D01*
X9790000Y6150000D02*
X9839000Y6101000D01*
X9705000Y6150000D02*
X9790000D01*
X9705000Y5834528D02*
Y6150000D01*
Y5834528D02*
X9730000Y5809528D01*
X9770000D01*
X9794528Y5785000D01*
Y5644528D02*
Y5785000D01*
X9770000Y5620000D02*
X9794528Y5644528D01*
X8785000Y5620000D02*
X9770000D01*
X8735000Y5570000D02*
X8785000Y5620000D01*
X8020000Y5570000D02*
X8735000D01*
X5815000Y5270000D02*
X5960000Y5415000D01*
X7400000D01*
X7420000Y5435000D01*
X7560000D01*
X7580000Y5415000D01*
X9700000D01*
X9750000Y5465000D01*
X9705000Y5520000D02*
X9750000Y5565000D01*
X5865000Y5520000D02*
X9705000D01*
X5815000Y5570000D02*
X5865000Y5520000D01*
X5815000Y5870000D02*
X6491000D01*
X6736000Y5625000D01*
X8102000D01*
X8192000Y5715000D01*
X9700000D01*
X9750000Y5665000D01*
X9573000Y5765000D02*
X9750000D01*
X9528000Y5810000D02*
X9573000Y5765000D01*
X9405000Y5810000D02*
X9528000D01*
X9376000Y5781000D02*
X9405000Y5810000D01*
X8162000Y5781000D02*
X9376000D01*
X8106000Y5725000D02*
X8162000Y5781000D01*
X6715000Y5725000D02*
X8106000D01*
X6270000Y6170000D02*
X6715000Y5725000D01*
X5815000Y6170000D02*
X6270000D01*
X8740000Y5265000D02*
X9450000D01*
X8735000Y5270000D02*
X8740000Y5265000D01*
X8020000Y5270000D02*
X8735000D01*
X5900000Y5470000D02*
X6760000D01*
X5760000Y7285000D02*
X5795000Y7250000D01*
X5525000Y7285000D02*
X5760000D01*
X5510000Y7300000D02*
X5525000Y7285000D01*
X5428000Y7300000D02*
X5510000D01*
X5328000Y7200000D02*
X5428000Y7300000D01*
X4773000Y7200000D02*
X5328000D01*
X4510472Y6937472D02*
X4773000Y7200000D01*
X4510472Y6242528D02*
Y6937472D01*
Y6242528D02*
X4533000Y6220000D01*
X4575000D01*
X4600000Y6195000D01*
Y6135000D02*
Y6195000D01*
X4580000Y6115000D02*
X4600000Y6135000D01*
X4530000Y6115000D02*
X4580000D01*
X4510000Y6095000D02*
X4530000Y6115000D01*
X4510000Y5215000D02*
Y6095000D01*
Y5215000D02*
X4555000Y5170000D01*
Y5770000D02*
X5405000D01*
X5455000Y5820000D01*
X4555000Y6070000D02*
X5235000D01*
X5065000Y5345000D02*
X5190000Y5220000D01*
X6710000D01*
X6760000Y5170000D01*
X6921000Y6224000D02*
X7075000Y6070000D01*
X6726000Y6224000D02*
X6921000D01*
X6715000Y6235000D02*
X6726000Y6224000D01*
X6715000Y6235000D02*
Y6295000D01*
X6743000Y6323000D01*
X8605000D01*
X9199000Y6917000D01*
Y7001000D01*
X9050000Y7150000D02*
X9199000Y7001000D01*
X5500000Y5170000D02*
X5564528Y5105472D01*
X7746010D01*
X7957000Y5316462D01*
X9309462D01*
X9333000Y5340000D01*
X9061000Y6857000D02*
X9159000Y6955000D01*
X5568000Y6857000D02*
X9061000D01*
X6236472Y7734528D02*
X9034472D01*
X9094528Y7674472D01*
Y7594528D02*
Y7674472D01*
X9050000Y7550000D02*
X9094528Y7594528D01*
X7075000Y5170000D02*
X7235000D01*
X7460000Y5395000D01*
X7520000D01*
X7579000Y5336000D01*
X7917000D01*
X7250472Y5125472D02*
X7480000Y5355000D01*
X5859528Y5125472D02*
X7250472D01*
X5815000Y5170000D02*
X5859528Y5125472D01*
X7420000Y7450000D02*
X7545000D01*
X7372000Y7498000D02*
X7420000Y7450000D01*
X6871000Y7498000D02*
X7372000D01*
X6828000Y7455000D02*
X6871000Y7498000D01*
X6735000Y7455000D02*
X6828000D01*
X5876000Y5709000D02*
X6339000D01*
X5815000Y5770000D02*
X5876000Y5709000D01*
X5400000Y8115000D02*
X6780000D01*
X7245000Y7050000D02*
X7450000D01*
X7500000Y7100000D01*
X4295000Y8115000D02*
X5100000D01*
X4290000Y8120000D02*
X4295000Y8115000D01*
X3480000Y8120000D02*
X4290000D01*
X9517000Y5265000D02*
X9750000D01*
X8771000Y5870000D02*
X8776000Y5865000D01*
X8020000Y5870000D02*
X8771000D01*
X7075000D02*
X7125000Y5920000D01*
X9503214D01*
X9595000Y6011786D01*
Y6086888D01*
X9713112Y6205000D01*
X9750000D01*
X9558000Y5365000D02*
X9750000D01*
X9551000Y6057000D02*
X9555000Y6061000D01*
X8133000Y6057000D02*
X9551000D01*
X8020000Y6170000D02*
X8133000Y6057000D01*
X8858000Y5865000D02*
X9450000D01*
X8816000Y5823000D02*
X8858000Y5865000D01*
X6715000Y5823000D02*
X8816000D01*
X6323000Y6215000D02*
X6715000Y5823000D01*
X5790000Y6215000D02*
X6323000D01*
X5770000Y6195000D02*
X5790000Y6215000D01*
X5770000Y6035000D02*
Y6195000D01*
Y6035000D02*
X5790000Y6015000D01*
X5840000D01*
X5860000Y5995000D01*
Y5950000D02*
Y5995000D01*
X5830000Y5920000D02*
X5860000Y5950000D01*
X4605000Y5920000D02*
X5830000D01*
X4555000Y5870000D02*
X4605000Y5920000D01*
X9750000Y6105000D02*
X9814528Y6040472D01*
Y5254528D02*
Y6040472D01*
X9770000Y5210000D02*
X9814528Y5254528D01*
X8634000Y5210000D02*
X9770000D01*
X8499000Y5075000D02*
X8634000Y5210000D01*
X7957000Y5075000D02*
X8499000D01*
X7867000Y5165000D02*
X7957000Y5075000D01*
X7075000Y5370000D02*
X7385000D01*
X7430000Y5415000D01*
X7531462D01*
X7570000Y5376462D01*
X7939000D01*
X7945462Y5370000D01*
X8020000D01*
X8675000Y6135000D02*
X8710000Y6170000D01*
X9415000D01*
X9450000Y6205000D01*
X5125000Y5620000D02*
X6710000D01*
X6760000Y5570000D01*
X5795000Y7150000D02*
X5927000D01*
X5975000Y7198000D01*
X6230000D01*
X6328000Y7100000D01*
X5112830Y5370000D02*
X5500000D01*
X5097000Y5385830D02*
X5112830Y5370000D01*
X5042830Y5385830D02*
X5097000D01*
X5027000Y5370000D02*
X5042830Y5385830D01*
X4555000Y5370000D02*
X5027000D01*
X6155000Y7350000D02*
X6200000Y7305000D01*
X7200000D01*
X7245000Y7350000D01*
X5495000Y7450000D02*
X5540000Y7405000D01*
X6110000D01*
X6155000Y7450000D01*
X4825000D02*
X4953000D01*
X4998000Y7405000D01*
X5450000D01*
X5495000Y7450000D01*
Y7550000D02*
X5540000Y7505000D01*
X6110000D01*
X6155000Y7550000D01*
X6873000D02*
X7245000D01*
X6828000Y7505000D02*
X6873000Y7550000D01*
X6200000Y7505000D02*
X6828000D01*
X6155000Y7550000D02*
X6200000Y7505000D01*
X7245000Y7550000D02*
X7372000D01*
X7417000Y7505000D01*
X8705000D01*
X8750000Y7550000D01*
X5495000Y7150000D02*
X5622000D01*
X5667000Y7105000D01*
X6110000D01*
X6155000Y7150000D01*
X7473000Y7550000D02*
X7545000D01*
X7428000Y7595000D02*
X7473000Y7550000D01*
X6629000Y7595000D02*
X7428000D01*
X6617000Y7583000D02*
X6629000Y7595000D01*
X5715000Y7870000D02*
X8750000D01*
X5967000Y7689000D02*
X6075000Y7797000D01*
X9053000D01*
X9114528Y7735472D01*
Y7514528D02*
Y7735472D01*
X9050000Y7450000D02*
X9114528Y7514528D01*
X6250306Y7650000D02*
X6455000D01*
X6205306Y7695000D02*
X6250306Y7650000D01*
X6054154Y7695000D02*
X6205306D01*
X6007604Y7648450D02*
X6054154Y7695000D01*
X5929154Y7648450D02*
X6007604D01*
X5927604Y7650000D02*
X5929154Y7648450D01*
X5795000Y7650000D02*
X5927604D01*
X7200000Y7205000D02*
X7245000Y7250000D01*
X6327000Y7205000D02*
X7200000D01*
X6282000Y7250000D02*
X6327000Y7205000D01*
X6155000Y7250000D02*
X6282000D01*
X4250000Y8230000D02*
X4350000D01*
X5125000Y7650000D02*
X5143000D01*
X5120000Y8158000D02*
X5143000Y8135000D01*
X3737000Y8158000D02*
X5120000D01*
X3670000Y8225000D02*
X3737000Y8158000D01*
X3805000Y8230000D02*
X3905000D01*
X3570000Y8225000D02*
X3670000D01*
X4045000Y8235000D02*
X4145000D01*
X4450000D02*
X4550000D01*
X7075000Y5670000D02*
X8020000D01*
X6760000D02*
X7075000D01*
Y5970000D02*
X8020000D01*
X6760000D02*
X7075000D01*
Y6270000D02*
X8020000D01*
X6760000D02*
X7075000D01*
X5500000Y5370000D02*
X5815000D01*
X4555000Y5670000D02*
X5500000D01*
X5815000D01*
X4555000Y5970000D02*
X5500000D01*
X5815000D01*
X4555000Y6270000D02*
X5500000D01*
X5815000D01*
X6760000Y5370000D02*
X7075000D01*
X2015000Y2825000D02*
X2030000Y2810000D01*
X3605000Y2845000D02*
X3615000Y2855000D01*
X2840000Y2830000D02*
X2855000Y2845000D01*
X2820000Y2810000D02*
X2840000Y2830000D01*
D35*
X5165000Y2560000D02*
D03*
X5065000D02*
D03*
X4965000D02*
D03*
X4865000D02*
D03*
X4765000D02*
D03*
X4665000D02*
D03*
X4565000D02*
D03*
X4465000D02*
D03*
X5165000Y2260000D02*
D03*
X5065000D02*
D03*
X4965000D02*
D03*
X4865000D02*
D03*
X4765000D02*
D03*
X4665000D02*
D03*
X4565000D02*
D03*
X6283096Y2560000D02*
D03*
X6183096D02*
D03*
X6083096D02*
D03*
X5983096D02*
D03*
X5883096D02*
D03*
X5783096D02*
D03*
X5683096D02*
D03*
X5583096D02*
D03*
X6283096Y2260000D02*
D03*
X6183096D02*
D03*
X6083096D02*
D03*
X5983096D02*
D03*
X5883096D02*
D03*
X5783096D02*
D03*
X5683096D02*
D03*
X7401190Y2560000D02*
D03*
X7301190D02*
D03*
X7201190D02*
D03*
X7101190D02*
D03*
X7001190D02*
D03*
X6901190D02*
D03*
X6801190D02*
D03*
X6701190D02*
D03*
X7401190Y2260000D02*
D03*
X7301190D02*
D03*
X7201190D02*
D03*
X7101190D02*
D03*
X7001190D02*
D03*
X6901190D02*
D03*
X6801190D02*
D03*
X8519286Y2560000D02*
D03*
X8419286D02*
D03*
X8319286D02*
D03*
X8219286D02*
D03*
X8119286D02*
D03*
X8019286D02*
D03*
X7919286D02*
D03*
X7819286D02*
D03*
X8519286Y2260000D02*
D03*
X8419286D02*
D03*
X8319286D02*
D03*
X8219286D02*
D03*
X8119286D02*
D03*
X8019286D02*
D03*
X7919286D02*
D03*
X5165000Y4080000D02*
D03*
X5065000D02*
D03*
X4965000D02*
D03*
X4865000D02*
D03*
X4765000D02*
D03*
X4665000D02*
D03*
X4565000D02*
D03*
X4465000D02*
D03*
X5165000Y3780000D02*
D03*
X5065000D02*
D03*
X4965000D02*
D03*
X4865000D02*
D03*
X4765000D02*
D03*
X4665000D02*
D03*
X4565000D02*
D03*
X6283096Y4080000D02*
D03*
X6183096D02*
D03*
X6083096D02*
D03*
X5983096D02*
D03*
X5883096D02*
D03*
X5783096D02*
D03*
X5683096D02*
D03*
X5583096D02*
D03*
X6283096Y3780000D02*
D03*
X6183096D02*
D03*
X6083096D02*
D03*
X5983096D02*
D03*
X5883096D02*
D03*
X5783096D02*
D03*
X5683096D02*
D03*
X7401190Y4080000D02*
D03*
X7301190D02*
D03*
X7201190D02*
D03*
X7101190D02*
D03*
X7001190D02*
D03*
X6901190D02*
D03*
X6801190D02*
D03*
X6701190D02*
D03*
X7401190Y3780000D02*
D03*
X7301190D02*
D03*
X7201190D02*
D03*
X7101190D02*
D03*
X7001190D02*
D03*
X6901190D02*
D03*
X6801190D02*
D03*
X8519286Y4080000D02*
D03*
X8419286D02*
D03*
X8319286D02*
D03*
X8219286D02*
D03*
X8119286D02*
D03*
X8019286D02*
D03*
X7919286D02*
D03*
X7819286D02*
D03*
X8519286Y3780000D02*
D03*
X8419286D02*
D03*
X8319286D02*
D03*
X8219286D02*
D03*
X8119286D02*
D03*
X8019286D02*
D03*
X7919286D02*
D03*
X4470000Y1520000D02*
D03*
X4570000D02*
D03*
X4670000D02*
D03*
X4770000D02*
D03*
X4870000D02*
D03*
X4970000D02*
D03*
X5070000D02*
D03*
X7765000D02*
D03*
X7865000D02*
D03*
X7965000D02*
D03*
X8065000D02*
D03*
X8165000D02*
D03*
X8265000D02*
D03*
X8365000D02*
D03*
X6660000D02*
D03*
X6760000D02*
D03*
X6860000D02*
D03*
X6960000D02*
D03*
X7060000D02*
D03*
X7160000D02*
D03*
X7260000D02*
D03*
X5560000D02*
D03*
X5660000D02*
D03*
X5760000D02*
D03*
X5860000D02*
D03*
X5960000D02*
D03*
X6060000D02*
D03*
X6160000D02*
D03*
X7765000Y2940000D02*
D03*
X7865000D02*
D03*
X7965000D02*
D03*
X8065000D02*
D03*
X8165000D02*
D03*
X8265000D02*
D03*
X8365000D02*
D03*
X6660000D02*
D03*
X6760000D02*
D03*
X6860000D02*
D03*
X6960000D02*
D03*
X7060000D02*
D03*
X7160000D02*
D03*
X7260000D02*
D03*
X5560000D02*
D03*
X5660000D02*
D03*
X5760000D02*
D03*
X5860000D02*
D03*
X5960000D02*
D03*
X6060000D02*
D03*
X6160000D02*
D03*
X4470000D02*
D03*
X4570000D02*
D03*
X4670000D02*
D03*
X4770000D02*
D03*
X4870000D02*
D03*
X4970000D02*
D03*
X5070000D02*
D03*
X9390000Y3160000D02*
D03*
Y3260000D02*
D03*
Y3360000D02*
D03*
Y3460000D02*
D03*
Y3560000D02*
D03*
Y3660000D02*
D03*
Y3760000D02*
D03*
Y3860000D02*
D03*
Y3960000D02*
D03*
X9090000Y3160000D02*
D03*
Y3260000D02*
D03*
Y3360000D02*
D03*
Y3460000D02*
D03*
Y3560000D02*
D03*
Y3660000D02*
D03*
Y3760000D02*
D03*
Y3860000D02*
D03*
X8840000Y2795000D02*
D03*
X8940000D02*
D03*
X9040000D02*
D03*
X9140000D02*
D03*
X9240000D02*
D03*
X9340000D02*
D03*
X9440000D02*
D03*
X9075000Y2065000D02*
D03*
Y2165000D02*
D03*
Y2265000D02*
D03*
Y2365000D02*
D03*
X9070000Y1350000D02*
D03*
Y1450000D02*
D03*
Y1550000D02*
D03*
Y1650000D02*
D03*
X8835000Y3805000D02*
D03*
Y3705000D02*
D03*
Y3605000D02*
D03*
Y3505000D02*
D03*
Y3405000D02*
D03*
Y3305000D02*
D03*
Y3205000D02*
D03*
X12069252Y5470000D02*
D03*
X11844252Y5165000D02*
D03*
X11744252D02*
D03*
X11844252Y5265000D02*
D03*
X11744252D02*
D03*
X11844252Y5365000D02*
D03*
X12187992Y5470000D02*
D03*
X10374252Y6030866D02*
D03*
X11209252Y6005000D02*
D03*
X11713386Y7700000D02*
D03*
X10524252Y6815000D02*
D03*
X10424252D02*
D03*
X10524252Y6715000D02*
D03*
X10424252D02*
D03*
X10524252Y6615000D02*
D03*
X12140000Y4210000D02*
D03*
X12040000D02*
D03*
X12220000Y2465000D02*
D03*
Y2365000D02*
D03*
X12120000Y2465000D02*
D03*
Y2365000D02*
D03*
X12020000Y2465000D02*
D03*
X12220000Y2725000D02*
D03*
Y2625000D02*
D03*
X12120000Y2725000D02*
D03*
Y2625000D02*
D03*
X12020000Y2725000D02*
D03*
X12215000Y2995000D02*
D03*
Y2895000D02*
D03*
X12115000Y2995000D02*
D03*
Y2895000D02*
D03*
X12015000Y2995000D02*
D03*
X11960000Y1590000D02*
D03*
Y1690000D02*
D03*
Y1790000D02*
D03*
Y1890000D02*
D03*
Y1990000D02*
D03*
X12215000Y3260000D02*
D03*
Y3160000D02*
D03*
X12115000Y3260000D02*
D03*
Y3160000D02*
D03*
X12015000Y3260000D02*
D03*
X12215000Y3525000D02*
D03*
Y3425000D02*
D03*
X12115000Y3525000D02*
D03*
Y3425000D02*
D03*
X12015000Y3525000D02*
D03*
X12210000Y3795000D02*
D03*
Y3695000D02*
D03*
X12110000Y3795000D02*
D03*
Y3695000D02*
D03*
X12010000Y3795000D02*
D03*
X11685000Y4475000D02*
D03*
X11585000D02*
D03*
X11485000D02*
D03*
X11385000D02*
D03*
X11285000D02*
D03*
X11185000D02*
D03*
X11085000D02*
D03*
X10985000D02*
D03*
X10885000D02*
D03*
X10785000D02*
D03*
X10685000D02*
D03*
X10585000D02*
D03*
X10485000D02*
D03*
X10385000D02*
D03*
X10285000D02*
D03*
X10185000D02*
D03*
X10085000D02*
D03*
X9985000D02*
D03*
X9885000D02*
D03*
X11685000Y4225000D02*
D03*
X11585000D02*
D03*
X11485000D02*
D03*
X11385000D02*
D03*
X11285000D02*
D03*
X11185000D02*
D03*
X11085000D02*
D03*
X10985000D02*
D03*
X10885000D02*
D03*
X10785000D02*
D03*
X10685000D02*
D03*
X10585000D02*
D03*
X10485000D02*
D03*
X10385000D02*
D03*
X10285000D02*
D03*
X10185000D02*
D03*
X10085000D02*
D03*
X9985000D02*
D03*
X9885000D02*
D03*
X9799000Y1580000D02*
D03*
X9899000D02*
D03*
X9999000D02*
D03*
X10099000D02*
D03*
X10199000D02*
D03*
X10299000D02*
D03*
X10399000D02*
D03*
X10499000D02*
D03*
X10599000D02*
D03*
X10699000D02*
D03*
X10799000D02*
D03*
X10899000D02*
D03*
X10999000D02*
D03*
X11099000D02*
D03*
X11199000D02*
D03*
X11299000D02*
D03*
X11399000D02*
D03*
X11499000D02*
D03*
X11599000D02*
D03*
X11685000Y3980000D02*
D03*
X11585000D02*
D03*
X11485000D02*
D03*
X11385000D02*
D03*
X11285000D02*
D03*
X11185000D02*
D03*
X11085000D02*
D03*
X10985000D02*
D03*
X10885000D02*
D03*
X10785000D02*
D03*
X10685000D02*
D03*
X10585000D02*
D03*
X10485000D02*
D03*
X10385000D02*
D03*
X10285000D02*
D03*
X10185000D02*
D03*
X10085000D02*
D03*
X9985000D02*
D03*
X9885000D02*
D03*
X9799000Y1085000D02*
D03*
X9899000D02*
D03*
X9999000D02*
D03*
X10099000D02*
D03*
X10199000D02*
D03*
X10299000D02*
D03*
X10399000D02*
D03*
X10499000D02*
D03*
X10599000D02*
D03*
X10699000D02*
D03*
X10799000D02*
D03*
X10899000D02*
D03*
X10999000D02*
D03*
X11099000D02*
D03*
X11199000D02*
D03*
X11299000D02*
D03*
X11399000D02*
D03*
X11499000D02*
D03*
X11599000D02*
D03*
X9799000Y1330000D02*
D03*
X9899000D02*
D03*
X9999000D02*
D03*
X10099000D02*
D03*
X10199000D02*
D03*
X10299000D02*
D03*
X10399000D02*
D03*
X10499000D02*
D03*
X10599000D02*
D03*
X10699000D02*
D03*
X10799000D02*
D03*
X10899000D02*
D03*
X10999000D02*
D03*
X11099000D02*
D03*
X11199000D02*
D03*
X11299000D02*
D03*
X11399000D02*
D03*
X11499000D02*
D03*
X11599000D02*
D03*
X9930000Y1785000D02*
D03*
Y1885000D02*
D03*
Y1985000D02*
D03*
Y2085000D02*
D03*
Y2185000D02*
D03*
Y2285000D02*
D03*
Y2385000D02*
D03*
Y2485000D02*
D03*
Y2585000D02*
D03*
Y2685000D02*
D03*
Y2785000D02*
D03*
Y2885000D02*
D03*
Y2985000D02*
D03*
Y3085000D02*
D03*
Y3185000D02*
D03*
Y3285000D02*
D03*
Y3385000D02*
D03*
Y3485000D02*
D03*
Y3585000D02*
D03*
X10180000Y1785000D02*
D03*
Y1885000D02*
D03*
Y1985000D02*
D03*
Y2085000D02*
D03*
Y2185000D02*
D03*
Y2285000D02*
D03*
Y2385000D02*
D03*
Y2485000D02*
D03*
Y2585000D02*
D03*
Y2685000D02*
D03*
Y2785000D02*
D03*
Y2885000D02*
D03*
Y2985000D02*
D03*
Y3085000D02*
D03*
Y3185000D02*
D03*
Y3285000D02*
D03*
Y3385000D02*
D03*
Y3485000D02*
D03*
Y3585000D02*
D03*
X9680000Y1785000D02*
D03*
Y1885000D02*
D03*
Y1985000D02*
D03*
Y2085000D02*
D03*
Y2185000D02*
D03*
Y2285000D02*
D03*
Y2385000D02*
D03*
Y2485000D02*
D03*
Y2585000D02*
D03*
Y2685000D02*
D03*
Y2785000D02*
D03*
Y2885000D02*
D03*
Y2985000D02*
D03*
Y3085000D02*
D03*
Y3185000D02*
D03*
Y3285000D02*
D03*
Y3385000D02*
D03*
Y3485000D02*
D03*
Y3585000D02*
D03*
X11285000Y3685000D02*
D03*
Y3585000D02*
D03*
Y3485000D02*
D03*
Y3385000D02*
D03*
Y3285000D02*
D03*
Y3185000D02*
D03*
Y3085000D02*
D03*
Y2985000D02*
D03*
Y2885000D02*
D03*
Y2785000D02*
D03*
Y2685000D02*
D03*
Y2585000D02*
D03*
Y2485000D02*
D03*
Y2385000D02*
D03*
Y2285000D02*
D03*
Y2185000D02*
D03*
Y2085000D02*
D03*
Y1985000D02*
D03*
Y1885000D02*
D03*
X11780000Y3685000D02*
D03*
Y3585000D02*
D03*
Y3485000D02*
D03*
Y3385000D02*
D03*
Y3285000D02*
D03*
Y3185000D02*
D03*
Y3085000D02*
D03*
Y2985000D02*
D03*
Y2885000D02*
D03*
Y2785000D02*
D03*
Y2685000D02*
D03*
Y2585000D02*
D03*
Y2485000D02*
D03*
Y2385000D02*
D03*
Y2285000D02*
D03*
Y2185000D02*
D03*
Y2085000D02*
D03*
Y1985000D02*
D03*
Y1885000D02*
D03*
X11530000Y3685000D02*
D03*
Y3585000D02*
D03*
Y3485000D02*
D03*
Y3385000D02*
D03*
Y3285000D02*
D03*
Y3185000D02*
D03*
Y3085000D02*
D03*
Y2985000D02*
D03*
Y2885000D02*
D03*
Y2785000D02*
D03*
Y2685000D02*
D03*
Y2585000D02*
D03*
Y2485000D02*
D03*
Y2385000D02*
D03*
Y2285000D02*
D03*
Y2185000D02*
D03*
Y2085000D02*
D03*
Y1985000D02*
D03*
Y1885000D02*
D03*
X1690000Y6970000D02*
D03*
X2830000Y6530000D02*
D03*
X1875000Y6325000D02*
D03*
X2055000Y7275000D02*
D03*
X3480000Y8120000D02*
D03*
X3670000Y8225000D02*
D03*
X3905000Y8230000D02*
D03*
X4145000Y8235000D02*
D03*
X4350000Y8230000D02*
D03*
X4550000Y8235000D02*
D03*
X8020000Y5270000D02*
D03*
Y5370000D02*
D03*
Y5470000D02*
D03*
Y5570000D02*
D03*
Y5670000D02*
D03*
Y5770000D02*
D03*
Y5870000D02*
D03*
Y5970000D02*
D03*
Y6070000D02*
D03*
Y6170000D02*
D03*
Y6270000D02*
D03*
X7075000Y5270000D02*
D03*
Y5370000D02*
D03*
Y5470000D02*
D03*
Y5570000D02*
D03*
Y5670000D02*
D03*
Y5770000D02*
D03*
Y5870000D02*
D03*
Y5970000D02*
D03*
Y6070000D02*
D03*
Y6170000D02*
D03*
Y6270000D02*
D03*
X6760000Y5270000D02*
D03*
Y5370000D02*
D03*
Y5470000D02*
D03*
Y5570000D02*
D03*
Y5670000D02*
D03*
Y5770000D02*
D03*
Y5870000D02*
D03*
Y5970000D02*
D03*
Y6070000D02*
D03*
Y6170000D02*
D03*
Y6270000D02*
D03*
X5815000Y5270000D02*
D03*
Y5370000D02*
D03*
Y5470000D02*
D03*
Y5570000D02*
D03*
Y5670000D02*
D03*
Y5770000D02*
D03*
Y5870000D02*
D03*
Y5970000D02*
D03*
Y6070000D02*
D03*
Y6170000D02*
D03*
Y6270000D02*
D03*
X5500000Y5270000D02*
D03*
Y5370000D02*
D03*
Y5470000D02*
D03*
Y5570000D02*
D03*
Y5670000D02*
D03*
Y5770000D02*
D03*
Y5870000D02*
D03*
Y5970000D02*
D03*
Y6070000D02*
D03*
Y6170000D02*
D03*
Y6270000D02*
D03*
X4555000Y5270000D02*
D03*
Y5370000D02*
D03*
Y5470000D02*
D03*
Y5570000D02*
D03*
Y5670000D02*
D03*
Y5770000D02*
D03*
Y5870000D02*
D03*
Y5970000D02*
D03*
Y6070000D02*
D03*
Y6170000D02*
D03*
Y6270000D02*
D03*
X7545000Y7050000D02*
D03*
Y7150000D02*
D03*
Y7250000D02*
D03*
Y7350000D02*
D03*
Y7450000D02*
D03*
Y7550000D02*
D03*
Y7650000D02*
D03*
X7245000Y6950000D02*
D03*
Y7050000D02*
D03*
Y7150000D02*
D03*
Y7250000D02*
D03*
Y7350000D02*
D03*
Y7450000D02*
D03*
Y7550000D02*
D03*
Y7650000D02*
D03*
X9050000Y7050000D02*
D03*
Y7150000D02*
D03*
Y7250000D02*
D03*
Y7350000D02*
D03*
Y7450000D02*
D03*
Y7550000D02*
D03*
Y7650000D02*
D03*
X8750000Y6950000D02*
D03*
Y7050000D02*
D03*
Y7150000D02*
D03*
Y7250000D02*
D03*
Y7350000D02*
D03*
Y7450000D02*
D03*
Y7550000D02*
D03*
Y7650000D02*
D03*
X5795000Y7050000D02*
D03*
Y7150000D02*
D03*
Y7250000D02*
D03*
Y7350000D02*
D03*
Y7450000D02*
D03*
Y7550000D02*
D03*
Y7650000D02*
D03*
X5495000Y6950000D02*
D03*
Y7050000D02*
D03*
Y7150000D02*
D03*
Y7250000D02*
D03*
Y7350000D02*
D03*
Y7450000D02*
D03*
Y7550000D02*
D03*
Y7650000D02*
D03*
X6455000Y7050000D02*
D03*
Y7150000D02*
D03*
Y7250000D02*
D03*
Y7350000D02*
D03*
Y7450000D02*
D03*
Y7550000D02*
D03*
Y7650000D02*
D03*
X6155000Y6950000D02*
D03*
Y7050000D02*
D03*
Y7150000D02*
D03*
Y7250000D02*
D03*
Y7350000D02*
D03*
Y7450000D02*
D03*
Y7550000D02*
D03*
Y7650000D02*
D03*
X9750000Y5265000D02*
D03*
Y5365000D02*
D03*
Y5465000D02*
D03*
Y5565000D02*
D03*
Y5665000D02*
D03*
Y5765000D02*
D03*
Y5865000D02*
D03*
X9450000Y5165000D02*
D03*
Y5265000D02*
D03*
Y5365000D02*
D03*
Y5465000D02*
D03*
Y5565000D02*
D03*
Y5665000D02*
D03*
Y5765000D02*
D03*
Y5865000D02*
D03*
X9750000Y6205000D02*
D03*
Y6305000D02*
D03*
Y6405000D02*
D03*
Y6505000D02*
D03*
Y6605000D02*
D03*
Y6705000D02*
D03*
Y6805000D02*
D03*
X9450000Y6105000D02*
D03*
Y6205000D02*
D03*
Y6305000D02*
D03*
Y6405000D02*
D03*
Y6505000D02*
D03*
Y6605000D02*
D03*
Y6705000D02*
D03*
Y6805000D02*
D03*
X5125000Y7050000D02*
D03*
Y7150000D02*
D03*
Y7250000D02*
D03*
Y7350000D02*
D03*
Y7450000D02*
D03*
Y7550000D02*
D03*
Y7650000D02*
D03*
X4825000Y6950000D02*
D03*
Y7050000D02*
D03*
Y7150000D02*
D03*
Y7250000D02*
D03*
Y7350000D02*
D03*
Y7450000D02*
D03*
Y7550000D02*
D03*
Y7650000D02*
D03*
D36*
X4465000Y2260000D02*
D03*
X5583096D02*
D03*
X6701190D02*
D03*
X7819286D02*
D03*
X4465000Y3780000D02*
D03*
X5583096D02*
D03*
X6701190D02*
D03*
X7819286D02*
D03*
X9075000Y2465000D02*
D03*
X9070000Y1750000D02*
D03*
X8835000Y3905000D02*
D03*
X11744252Y5365000D02*
D03*
X10374252Y6130866D02*
D03*
X10424252Y6615000D02*
D03*
X11960000Y2090000D02*
D03*
X9930000Y3685000D02*
D03*
X10180000D02*
D03*
X9680000D02*
D03*
X11285000Y1785000D02*
D03*
X11780000D02*
D03*
X11530000D02*
D03*
X2830000Y6630000D02*
D03*
X3480000Y8020000D02*
D03*
X8020000Y5170000D02*
D03*
X7075000D02*
D03*
X6760000D02*
D03*
X5815000D02*
D03*
X5500000D02*
D03*
X4555000D02*
D03*
D37*
X4370000Y1520000D02*
D03*
X7665000D02*
D03*
X6560000D02*
D03*
X5460000D02*
D03*
X7665000Y2940000D02*
D03*
X6560000D02*
D03*
X5460000D02*
D03*
X4370000D02*
D03*
X9090000Y3960000D02*
D03*
X8740000Y2795000D02*
D03*
X11969252Y5470000D02*
D03*
X12287992D02*
D03*
X11109252Y6005000D02*
D03*
X11613386Y7700000D02*
D03*
X11940000Y4210000D02*
D03*
X12020000Y2365000D02*
D03*
Y2625000D02*
D03*
X12015000Y2895000D02*
D03*
Y3160000D02*
D03*
Y3425000D02*
D03*
X12010000Y3695000D02*
D03*
X9785000Y4475000D02*
D03*
Y4225000D02*
D03*
X11699000Y1580000D02*
D03*
X9785000Y3980000D02*
D03*
X11699000Y1085000D02*
D03*
Y1330000D02*
D03*
X1790000Y6970000D02*
D03*
X1975000Y6325000D02*
D03*
X1955000Y7275000D02*
D03*
X3570000Y8225000D02*
D03*
X3805000Y8230000D02*
D03*
X4045000Y8235000D02*
D03*
X4250000Y8230000D02*
D03*
X4450000Y8235000D02*
D03*
X7545000Y6950000D02*
D03*
X9050000D02*
D03*
X5795000D02*
D03*
X6455000D02*
D03*
X9750000Y5165000D02*
D03*
Y6105000D02*
D03*
X5125000Y6950000D02*
D03*
D38*
X4374882Y2080000D02*
D03*
Y1680000D02*
D03*
X4482756Y2080000D02*
D03*
Y1680000D02*
D03*
X4590630Y2080000D02*
D03*
Y1680000D02*
D03*
X4698504Y2080000D02*
D03*
Y1680000D02*
D03*
X4806378Y2080000D02*
D03*
Y1680000D02*
D03*
X4914252Y2080000D02*
D03*
Y1680000D02*
D03*
X5022126Y2080000D02*
D03*
Y1680000D02*
D03*
X5130000Y2080000D02*
D03*
Y1680000D02*
D03*
X5464882Y2075000D02*
D03*
Y1675000D02*
D03*
X5572756Y2075000D02*
D03*
Y1675000D02*
D03*
X5680630Y2075000D02*
D03*
Y1675000D02*
D03*
X5788504Y2075000D02*
D03*
Y1675000D02*
D03*
X5896378Y2075000D02*
D03*
Y1675000D02*
D03*
X6004252Y2075000D02*
D03*
Y1675000D02*
D03*
X6112126Y2075000D02*
D03*
Y1675000D02*
D03*
X6220000Y2075000D02*
D03*
Y1675000D02*
D03*
X6564882Y2080000D02*
D03*
Y1680000D02*
D03*
X6672756Y2080000D02*
D03*
Y1680000D02*
D03*
X6780630Y2080000D02*
D03*
Y1680000D02*
D03*
X6888504Y2080000D02*
D03*
Y1680000D02*
D03*
X6996378Y2080000D02*
D03*
Y1680000D02*
D03*
X7104252Y2080000D02*
D03*
Y1680000D02*
D03*
X7212126Y2080000D02*
D03*
Y1680000D02*
D03*
X7320000Y2080000D02*
D03*
Y1680000D02*
D03*
X7664882Y2080000D02*
D03*
Y1680000D02*
D03*
X7772756Y2080000D02*
D03*
Y1680000D02*
D03*
X7880630Y2080000D02*
D03*
Y1680000D02*
D03*
X7988504Y2080000D02*
D03*
Y1680000D02*
D03*
X8096378Y2080000D02*
D03*
Y1680000D02*
D03*
X8204252Y2080000D02*
D03*
Y1680000D02*
D03*
X8312126Y2080000D02*
D03*
Y1680000D02*
D03*
X8420000Y2080000D02*
D03*
Y1680000D02*
D03*
X4374882Y3185000D02*
D03*
Y3585000D02*
D03*
X4482756Y3185000D02*
D03*
Y3585000D02*
D03*
X4590630Y3185000D02*
D03*
Y3585000D02*
D03*
X4698504Y3185000D02*
D03*
Y3585000D02*
D03*
X4806378Y3185000D02*
D03*
Y3585000D02*
D03*
X4914252Y3185000D02*
D03*
Y3585000D02*
D03*
X5022126Y3185000D02*
D03*
Y3585000D02*
D03*
X5130000Y3185000D02*
D03*
Y3585000D02*
D03*
X5559882Y3175000D02*
D03*
Y3575000D02*
D03*
X5667756Y3175000D02*
D03*
Y3575000D02*
D03*
X5775630Y3175000D02*
D03*
Y3575000D02*
D03*
X5883504Y3175000D02*
D03*
Y3575000D02*
D03*
X5991378Y3175000D02*
D03*
Y3575000D02*
D03*
X6099252Y3175000D02*
D03*
Y3575000D02*
D03*
X6207126Y3175000D02*
D03*
Y3575000D02*
D03*
X6564882Y3185000D02*
D03*
Y3585000D02*
D03*
X6672756Y3185000D02*
D03*
Y3585000D02*
D03*
X6780630Y3185000D02*
D03*
Y3585000D02*
D03*
X6888504Y3185000D02*
D03*
Y3585000D02*
D03*
X6996378Y3185000D02*
D03*
Y3585000D02*
D03*
X7104252Y3185000D02*
D03*
Y3585000D02*
D03*
X7212126Y3185000D02*
D03*
Y3585000D02*
D03*
X7320000Y3185000D02*
D03*
Y3585000D02*
D03*
X7664882Y3185000D02*
D03*
Y3585000D02*
D03*
X7772756Y3185000D02*
D03*
Y3585000D02*
D03*
X7880630Y3185000D02*
D03*
Y3585000D02*
D03*
X7988504Y3185000D02*
D03*
Y3585000D02*
D03*
X8096378Y3185000D02*
D03*
Y3585000D02*
D03*
X8204252Y3185000D02*
D03*
Y3585000D02*
D03*
X8312126Y3185000D02*
D03*
Y3585000D02*
D03*
X8420000Y3185000D02*
D03*
Y3585000D02*
D03*
X5460000Y3175000D02*
D03*
Y3575000D02*
D03*
X2255000Y6290000D02*
D03*
Y5990000D02*
D03*
X2250000Y6780000D02*
D03*
Y7080000D02*
D03*
X5400000Y8115000D02*
D03*
X5100000D02*
D03*
X1090000Y1145000D02*
D03*
Y1445000D02*
D03*
X2020000Y2530000D02*
D03*
Y2830000D02*
D03*
X2445000Y2510000D02*
D03*
Y2810000D02*
D03*
X2840000Y2530000D02*
D03*
Y2830000D02*
D03*
X3270000Y2545000D02*
D03*
Y2845000D02*
D03*
X3615000Y2555000D02*
D03*
Y2855000D02*
D03*
D39*
X10834252Y6605000D02*
D03*
X11042402Y7750000D02*
D03*
X10624252Y6815000D02*
D03*
X10719252Y6694567D02*
D03*
X10724252Y6910000D02*
D03*
X10719252Y6060000D02*
D03*
X10669252Y6405000D02*
D03*
X11014252Y6765433D02*
D03*
X10644252Y6575000D02*
D03*
X11289252Y6095000D02*
D03*
X11674252Y6755000D02*
D03*
X12204252Y7775000D02*
D03*
X11864252Y6605000D02*
D03*
X10889252Y6480000D02*
D03*
X11064252Y6435000D02*
D03*
X10936102Y7675000D02*
D03*
X11514252Y6690000D02*
D03*
X11154252Y7765000D02*
D03*
X11639252Y6490000D02*
D03*
X11359252Y6295000D02*
D03*
X11214252Y6970000D02*
D03*
X1930000Y4240000D02*
D03*
X2085000Y4200000D02*
D03*
Y4120000D02*
D03*
X1930000Y4080000D02*
D03*
Y4160000D02*
D03*
X1570000Y3160000D02*
D03*
X2470000D02*
D03*
X1725000Y5070000D02*
D03*
X1725000Y4873150D02*
D03*
X1410000Y4878150D02*
D03*
X1410000Y5075000D02*
D03*
X1916575Y3805000D02*
D03*
X2113425Y3805000D02*
D03*
X1280000Y3805000D02*
D03*
Y3605000D02*
D03*
D40*
X10435000Y3685000D02*
D03*
D41*
Y3585000D02*
D03*
Y3485000D02*
D03*
Y3385000D02*
D03*
Y3285000D02*
D03*
Y3185000D02*
D03*
Y3085000D02*
D03*
Y2985000D02*
D03*
Y2885000D02*
D03*
Y2785000D02*
D03*
Y2685000D02*
D03*
Y2585000D02*
D03*
Y2485000D02*
D03*
Y2385000D02*
D03*
Y2285000D02*
D03*
Y2185000D02*
D03*
Y2085000D02*
D03*
Y1985000D02*
D03*
Y1885000D02*
D03*
Y1785000D02*
D03*
X11035000D02*
D03*
Y1885000D02*
D03*
Y1985000D02*
D03*
Y2085000D02*
D03*
Y2185000D02*
D03*
Y2285000D02*
D03*
Y2385000D02*
D03*
Y2485000D02*
D03*
Y2585000D02*
D03*
Y2685000D02*
D03*
Y2785000D02*
D03*
Y2885000D02*
D03*
Y2985000D02*
D03*
Y3085000D02*
D03*
Y3185000D02*
D03*
Y3285000D02*
D03*
Y3385000D02*
D03*
Y3485000D02*
D03*
Y3585000D02*
D03*
Y3685000D02*
D03*
D42*
X2570000Y7050000D02*
D03*
Y7650000D02*
D03*
X3090000Y6890000D02*
D03*
Y6290000D02*
D03*
X2570000Y6270000D02*
D03*
Y6870000D02*
D03*
Y6090000D02*
D03*
Y5490000D02*
D03*
D43*
X1690000Y5530000D02*
D03*
X1090000D02*
D03*
X1690000Y5900000D02*
D03*
X1090000D02*
D03*
X1690000Y6270000D02*
D03*
X1090000D02*
D03*
D44*
X2250000Y5490000D02*
D03*
Y7650000D02*
D03*
Y7510000D02*
D03*
X2155000Y5700000D02*
D03*
D45*
X2350000Y1440000D02*
D03*
X2450000D02*
D03*
X1935000Y1425000D02*
D03*
X2035000D02*
D03*
X2710000Y1445000D02*
D03*
X2810000D02*
D03*
X3135000Y1460000D02*
D03*
X3235000D02*
D03*
X3505000Y1445000D02*
D03*
X3605000D02*
D03*
X1920000Y2105000D02*
D03*
X2020000D02*
D03*
X2345000Y2080000D02*
D03*
X2445000D02*
D03*
X2735000Y2060000D02*
D03*
X2835000D02*
D03*
X3115000Y2065000D02*
D03*
X3215000D02*
D03*
X3515000Y2090000D02*
D03*
X3615000D02*
D03*
D46*
X1280000Y4250000D02*
D03*
X4965000Y2766000D02*
D03*
X6590000Y3855000D02*
D03*
X7084190Y2477000D02*
D03*
X4410000Y3980000D02*
D03*
X11999252Y4805000D02*
D03*
X12144252D02*
D03*
X11704252Y5015000D02*
D03*
X12144252Y4920000D02*
D03*
X11967559Y5170000D02*
D03*
X10669252Y6205866D02*
D03*
X5085000Y6766000D02*
D03*
X6832000Y6925000D02*
D03*
X8990000Y6105000D02*
D03*
X5342000Y5870000D02*
D03*
X5900000Y5470000D02*
D03*
X5455000Y5820000D02*
D03*
X5235000Y6070000D02*
D03*
X5065000Y5345000D02*
D03*
X9333000Y5340000D02*
D03*
X9159000Y6955000D02*
D03*
X5568000Y6857000D02*
D03*
X6236472Y7734528D02*
D03*
X7917000Y5336000D02*
D03*
X7480000Y5355000D02*
D03*
X6735000Y7455000D02*
D03*
X6339000Y5709000D02*
D03*
X6780000Y8115000D02*
D03*
X7500000Y7100000D02*
D03*
X9517000Y5265000D02*
D03*
X8776000Y5865000D02*
D03*
X9558000Y5365000D02*
D03*
X9555000Y6061000D02*
D03*
X7867000Y5165000D02*
D03*
X8675000Y6135000D02*
D03*
X8750000Y6105000D02*
D03*
X5125000Y5620000D02*
D03*
X6328000Y7100000D02*
D03*
X6617000Y7583000D02*
D03*
X8750000Y7870000D02*
D03*
X5715000D02*
D03*
X5967000Y7689000D02*
D03*
D47*
X11210945Y6491693D02*
D03*
Y6535000D02*
D03*
Y6578307D02*
D03*
X11254252Y6491693D02*
D03*
Y6535000D02*
D03*
Y6578307D02*
D03*
X11297559Y6491693D02*
D03*
Y6535000D02*
D03*
Y6578307D02*
D03*
D48*
X1380000Y1790000D02*
D03*
Y1740000D02*
D03*
Y1690000D02*
D03*
D49*
X1152500Y4057500D02*
D03*
%TF.MD5,9464FC8776D11B0C20F6F4647A6D289B*%
M02*
