G04 Layer_Color=0*
%FSLAX26Y26*%
%MOIN*%
%TF.FileFunction,Plated,1,2,PTH,Drill*%
%TF.Part,Single*%
G01*
G75*
%TA.AperFunction,ComponentDrill*%
%ADD50C,0.035433*%
%ADD51C,0.035433*%
%ADD52C,0.033465*%
%TA.AperFunction,OtherDrill,Pad Free-36 (10834.252mil,6605mil)*%
%ADD53C,0.030000*%
%TA.AperFunction,OtherDrill,Pad Free-35 (11042.402mil,7750mil)*%
%ADD54C,0.030000*%
%TA.AperFunction,OtherDrill,Pad Free-33 (10624.252mil,6815mil)*%
%ADD55C,0.030000*%
%TA.AperFunction,OtherDrill,Pad Free-31 (10719.252mil,6694.567mil)*%
%ADD56C,0.030000*%
%TA.AperFunction,OtherDrill,Pad Free-30 (10724.252mil,6910mil)*%
%ADD57C,0.030000*%
%TA.AperFunction,OtherDrill,Pad Free-29 (10719.252mil,6060mil)*%
%ADD58C,0.030000*%
%TA.AperFunction,OtherDrill,Pad Free-28 (10669.252mil,6405mil)*%
%ADD59C,0.030000*%
%TA.AperFunction,OtherDrill,Pad Free-27 (11014.252mil,6765.433mil)*%
%ADD60C,0.030000*%
%TA.AperFunction,OtherDrill,Pad Free-26 (10644.252mil,6575mil)*%
%ADD61C,0.030000*%
%TA.AperFunction,OtherDrill,Pad Free-25 (11289.252mil,6095mil)*%
%ADD62C,0.030000*%
%TA.AperFunction,OtherDrill,Pad Free-24 (11674.252mil,6755mil)*%
%ADD63C,0.030000*%
%TA.AperFunction,OtherDrill,Pad Free-23 (12204.252mil,7775mil)*%
%ADD64C,0.030000*%
%TA.AperFunction,OtherDrill,Pad Free-22 (11864.252mil,6605mil)*%
%ADD65C,0.030000*%
%TA.AperFunction,OtherDrill,Pad Free-19 (10889.252mil,6480mil)*%
%ADD66C,0.030000*%
%TA.AperFunction,OtherDrill,Pad Free-18 (11064.252mil,6435mil)*%
%ADD67C,0.030000*%
%TA.AperFunction,OtherDrill,Pad Free-16 (10936.102mil,7675mil)*%
%ADD68C,0.030000*%
%TA.AperFunction,OtherDrill,Pad Free-15 (11514.252mil,6690mil)*%
%ADD69C,0.030000*%
%TA.AperFunction,OtherDrill,Pad Free-14 (11154.252mil,7765mil)*%
%ADD70C,0.030000*%
%TA.AperFunction,OtherDrill,Pad Free-13 (11639.252mil,6490mil)*%
%ADD71C,0.030000*%
%TA.AperFunction,OtherDrill,Pad Free-10 (11359.252mil,6295mil)*%
%ADD72C,0.030000*%
%TA.AperFunction,OtherDrill,Pad Free-9 (11214.252mil,6970mil)*%
%ADD73C,0.030000*%
%TA.AperFunction,ComponentDrill*%
%ADD74C,0.039000*%
%ADD75C,0.052000*%
%ADD76C,0.052000*%
%ADD77C,0.040000*%
%ADD78C,0.033465*%
%TA.AperFunction,OtherDrill,Pad Free-37 (1930mil,4240mil)*%
%ADD79C,0.030000*%
%TA.AperFunction,OtherDrill,Pad Free-38 (2085mil,4200mil)*%
%ADD80C,0.030000*%
%TA.AperFunction,OtherDrill,Pad Free-39 (2085mil,4120mil)*%
%ADD81C,0.030000*%
%TA.AperFunction,OtherDrill,Pad Free-40 (1930mil,4080mil)*%
%ADD82C,0.030000*%
%TA.AperFunction,OtherDrill,Pad Free-41 (1930mil,4160mil)*%
%ADD83C,0.030000*%
%TA.AperFunction,ComponentDrill*%
%ADD84C,0.050000*%
%TA.AperFunction,OtherDrill,Pad Free-42 (1570mil,3160mil)*%
%ADD85C,0.030000*%
%TA.AperFunction,OtherDrill,Pad Free-43 (2470mil,3160mil)*%
%ADD86C,0.030000*%
%TA.AperFunction,OtherDrill,Pad Free-44 (1725mil,5070mil)*%
%ADD87C,0.030000*%
%TA.AperFunction,OtherDrill,Pad Free-45 (1725mil,4873.15mil)*%
%ADD88C,0.030000*%
%TA.AperFunction,OtherDrill,Pad Free-46 (1410mil,4878.15mil)*%
%ADD89C,0.030000*%
%TA.AperFunction,OtherDrill,Pad Free-47 (1410mil,5075mil)*%
%ADD90C,0.030000*%
%TA.AperFunction,OtherDrill,Pad Free-48 (1916.575mil,3805mil)*%
%ADD91C,0.030000*%
%TA.AperFunction,OtherDrill,Pad Free-49 (2113.425mil,3805mil)*%
%ADD92C,0.030000*%
%TA.AperFunction,OtherDrill,Pad Free-50 (1280mil,3805mil)*%
%ADD93C,0.030000*%
%TA.AperFunction,OtherDrill,Pad Free-51 (1280mil,3605mil)*%
%ADD94C,0.030000*%
%TA.AperFunction,ViaDrill,NotFilled*%
%ADD95C,0.028000*%
%ADD96C,0.007874*%
%ADD97C,0.027000*%
D50*
X5165000Y2560000D02*
D03*
X5065000D02*
D03*
X4965000D02*
D03*
X4865000D02*
D03*
X4765000D02*
D03*
X4665000D02*
D03*
X4565000D02*
D03*
X4465000D02*
D03*
X5165000Y2260000D02*
D03*
X5065000D02*
D03*
X4965000D02*
D03*
X4865000D02*
D03*
X4765000D02*
D03*
X4665000D02*
D03*
X4565000D02*
D03*
X4465000D02*
D03*
X6283096Y2560000D02*
D03*
X6183096D02*
D03*
X6083096D02*
D03*
X5983096D02*
D03*
X5883096D02*
D03*
X5783096D02*
D03*
X5683096D02*
D03*
X5583096D02*
D03*
X6283096Y2260000D02*
D03*
X6183096D02*
D03*
X6083096D02*
D03*
X5983096D02*
D03*
X5883096D02*
D03*
X5783096D02*
D03*
X5683096D02*
D03*
X5583096D02*
D03*
X7401190Y2560000D02*
D03*
X7301190D02*
D03*
X7201190D02*
D03*
X7101190D02*
D03*
X7001190D02*
D03*
X6901190D02*
D03*
X6801190D02*
D03*
X6701190D02*
D03*
X7401190Y2260000D02*
D03*
X7301190D02*
D03*
X7201190D02*
D03*
X7101190D02*
D03*
X7001190D02*
D03*
X6901190D02*
D03*
X6801190D02*
D03*
X6701190D02*
D03*
X8519286Y2560000D02*
D03*
X8419286D02*
D03*
X8319286D02*
D03*
X8219286D02*
D03*
X8119286D02*
D03*
X8019286D02*
D03*
X7919286D02*
D03*
X7819286D02*
D03*
X8519286Y2260000D02*
D03*
X8419286D02*
D03*
X8319286D02*
D03*
X8219286D02*
D03*
X8119286D02*
D03*
X8019286D02*
D03*
X7919286D02*
D03*
X7819286D02*
D03*
X5165000Y4080000D02*
D03*
X5065000D02*
D03*
X4965000D02*
D03*
X4865000D02*
D03*
X4765000D02*
D03*
X4665000D02*
D03*
X4565000D02*
D03*
X4465000D02*
D03*
X5165000Y3780000D02*
D03*
X5065000D02*
D03*
X4965000D02*
D03*
X4865000D02*
D03*
X4765000D02*
D03*
X4665000D02*
D03*
X4565000D02*
D03*
X4465000D02*
D03*
X6283096Y4080000D02*
D03*
X6183096D02*
D03*
X6083096D02*
D03*
X5983096D02*
D03*
X5883096D02*
D03*
X5783096D02*
D03*
X5683096D02*
D03*
X5583096D02*
D03*
X6283096Y3780000D02*
D03*
X6183096D02*
D03*
X6083096D02*
D03*
X5983096D02*
D03*
X5883096D02*
D03*
X5783096D02*
D03*
X5683096D02*
D03*
X5583096D02*
D03*
X7401190Y4080000D02*
D03*
X7301190D02*
D03*
X7201190D02*
D03*
X7101190D02*
D03*
X7001190D02*
D03*
X6901190D02*
D03*
X6801190D02*
D03*
X6701190D02*
D03*
X7401190Y3780000D02*
D03*
X7301190D02*
D03*
X7201190D02*
D03*
X7101190D02*
D03*
X7001190D02*
D03*
X6901190D02*
D03*
X6801190D02*
D03*
X6701190D02*
D03*
X8519286Y4080000D02*
D03*
X8419286D02*
D03*
X8319286D02*
D03*
X8219286D02*
D03*
X8119286D02*
D03*
X8019286D02*
D03*
X7919286D02*
D03*
X7819286D02*
D03*
X8519286Y3780000D02*
D03*
X8419286D02*
D03*
X8319286D02*
D03*
X8219286D02*
D03*
X8119286D02*
D03*
X8019286D02*
D03*
X7919286D02*
D03*
X7819286D02*
D03*
X9075000Y2065000D02*
D03*
Y2165000D02*
D03*
Y2265000D02*
D03*
Y2365000D02*
D03*
Y2465000D02*
D03*
X9070000Y1350000D02*
D03*
Y1450000D02*
D03*
Y1550000D02*
D03*
Y1650000D02*
D03*
Y1750000D02*
D03*
X8835000Y3905000D02*
D03*
Y3805000D02*
D03*
Y3705000D02*
D03*
Y3605000D02*
D03*
Y3505000D02*
D03*
Y3405000D02*
D03*
Y3305000D02*
D03*
Y3205000D02*
D03*
X11844252Y5165000D02*
D03*
X11744252D02*
D03*
X11844252Y5265000D02*
D03*
X11744252D02*
D03*
X11844252Y5365000D02*
D03*
X11744252D02*
D03*
X10374252Y6030866D02*
D03*
Y6130866D02*
D03*
X10524252Y6815000D02*
D03*
X10424252D02*
D03*
X10524252Y6715000D02*
D03*
X10424252D02*
D03*
X10524252Y6615000D02*
D03*
X10424252D02*
D03*
X11960000Y1590000D02*
D03*
Y1690000D02*
D03*
Y1790000D02*
D03*
Y1890000D02*
D03*
Y1990000D02*
D03*
Y2090000D02*
D03*
X9930000Y1785000D02*
D03*
Y1885000D02*
D03*
Y1985000D02*
D03*
Y2085000D02*
D03*
Y2185000D02*
D03*
Y2285000D02*
D03*
Y2385000D02*
D03*
Y2485000D02*
D03*
Y2585000D02*
D03*
Y2685000D02*
D03*
Y2785000D02*
D03*
Y2885000D02*
D03*
Y2985000D02*
D03*
Y3085000D02*
D03*
Y3185000D02*
D03*
Y3285000D02*
D03*
Y3385000D02*
D03*
Y3485000D02*
D03*
Y3585000D02*
D03*
Y3685000D02*
D03*
X10180000Y1785000D02*
D03*
Y1885000D02*
D03*
Y1985000D02*
D03*
Y2085000D02*
D03*
Y2185000D02*
D03*
Y2285000D02*
D03*
Y2385000D02*
D03*
Y2485000D02*
D03*
Y2585000D02*
D03*
Y2685000D02*
D03*
Y2785000D02*
D03*
Y2885000D02*
D03*
Y2985000D02*
D03*
Y3085000D02*
D03*
Y3185000D02*
D03*
Y3285000D02*
D03*
Y3385000D02*
D03*
Y3485000D02*
D03*
Y3585000D02*
D03*
Y3685000D02*
D03*
X9680000Y1785000D02*
D03*
Y1885000D02*
D03*
Y1985000D02*
D03*
Y2085000D02*
D03*
Y2185000D02*
D03*
Y2285000D02*
D03*
Y2385000D02*
D03*
Y2485000D02*
D03*
Y2585000D02*
D03*
Y2685000D02*
D03*
Y2785000D02*
D03*
Y2885000D02*
D03*
Y2985000D02*
D03*
Y3085000D02*
D03*
Y3185000D02*
D03*
Y3285000D02*
D03*
Y3385000D02*
D03*
Y3485000D02*
D03*
Y3585000D02*
D03*
Y3685000D02*
D03*
X11285000D02*
D03*
Y3585000D02*
D03*
Y3485000D02*
D03*
Y3385000D02*
D03*
Y3285000D02*
D03*
Y3185000D02*
D03*
Y3085000D02*
D03*
Y2985000D02*
D03*
Y2885000D02*
D03*
Y2785000D02*
D03*
Y2685000D02*
D03*
Y2585000D02*
D03*
Y2485000D02*
D03*
Y2385000D02*
D03*
Y2285000D02*
D03*
Y2185000D02*
D03*
Y2085000D02*
D03*
Y1985000D02*
D03*
Y1885000D02*
D03*
Y1785000D02*
D03*
X11780000Y3685000D02*
D03*
Y3585000D02*
D03*
Y3485000D02*
D03*
Y3385000D02*
D03*
Y3285000D02*
D03*
Y3185000D02*
D03*
Y3085000D02*
D03*
Y2985000D02*
D03*
Y2885000D02*
D03*
Y2785000D02*
D03*
Y2685000D02*
D03*
Y2585000D02*
D03*
Y2485000D02*
D03*
Y2385000D02*
D03*
Y2285000D02*
D03*
Y2185000D02*
D03*
Y2085000D02*
D03*
Y1985000D02*
D03*
Y1885000D02*
D03*
Y1785000D02*
D03*
X11530000Y3685000D02*
D03*
Y3585000D02*
D03*
Y3485000D02*
D03*
Y3385000D02*
D03*
Y3285000D02*
D03*
Y3185000D02*
D03*
Y3085000D02*
D03*
Y2985000D02*
D03*
Y2885000D02*
D03*
Y2785000D02*
D03*
Y2685000D02*
D03*
Y2585000D02*
D03*
Y2485000D02*
D03*
Y2385000D02*
D03*
Y2285000D02*
D03*
Y2185000D02*
D03*
Y2085000D02*
D03*
Y1985000D02*
D03*
Y1885000D02*
D03*
Y1785000D02*
D03*
X2830000Y6630000D02*
D03*
Y6530000D02*
D03*
X3480000Y8120000D02*
D03*
Y8020000D02*
D03*
X8020000Y5170000D02*
D03*
Y5270000D02*
D03*
Y5370000D02*
D03*
Y5470000D02*
D03*
Y5570000D02*
D03*
Y5670000D02*
D03*
Y5770000D02*
D03*
Y5870000D02*
D03*
Y5970000D02*
D03*
Y6070000D02*
D03*
Y6170000D02*
D03*
Y6270000D02*
D03*
X7075000Y5170000D02*
D03*
Y5270000D02*
D03*
Y5370000D02*
D03*
Y5470000D02*
D03*
Y5570000D02*
D03*
Y5670000D02*
D03*
Y5770000D02*
D03*
Y5870000D02*
D03*
Y5970000D02*
D03*
Y6070000D02*
D03*
Y6170000D02*
D03*
Y6270000D02*
D03*
X6760000Y5170000D02*
D03*
Y5270000D02*
D03*
Y5370000D02*
D03*
Y5470000D02*
D03*
Y5570000D02*
D03*
Y5670000D02*
D03*
Y5770000D02*
D03*
Y5870000D02*
D03*
Y5970000D02*
D03*
Y6070000D02*
D03*
Y6170000D02*
D03*
Y6270000D02*
D03*
X5815000Y5170000D02*
D03*
Y5270000D02*
D03*
Y5370000D02*
D03*
Y5470000D02*
D03*
Y5570000D02*
D03*
Y5670000D02*
D03*
Y5770000D02*
D03*
Y5870000D02*
D03*
Y5970000D02*
D03*
Y6070000D02*
D03*
Y6170000D02*
D03*
Y6270000D02*
D03*
X5500000Y5170000D02*
D03*
Y5270000D02*
D03*
Y5370000D02*
D03*
Y5470000D02*
D03*
Y5570000D02*
D03*
Y5670000D02*
D03*
Y5770000D02*
D03*
Y5870000D02*
D03*
Y5970000D02*
D03*
Y6070000D02*
D03*
Y6170000D02*
D03*
Y6270000D02*
D03*
X4555000Y5170000D02*
D03*
Y5270000D02*
D03*
Y5370000D02*
D03*
Y5470000D02*
D03*
Y5570000D02*
D03*
Y5670000D02*
D03*
Y5770000D02*
D03*
Y5870000D02*
D03*
Y5970000D02*
D03*
Y6070000D02*
D03*
Y6170000D02*
D03*
Y6270000D02*
D03*
D51*
X4370000Y1520000D02*
D03*
X4470000D02*
D03*
X4570000D02*
D03*
X4670000D02*
D03*
X4770000D02*
D03*
X4870000D02*
D03*
X4970000D02*
D03*
X5070000D02*
D03*
X7665000D02*
D03*
X7765000D02*
D03*
X7865000D02*
D03*
X7965000D02*
D03*
X8065000D02*
D03*
X8165000D02*
D03*
X8265000D02*
D03*
X8365000D02*
D03*
X6560000D02*
D03*
X6660000D02*
D03*
X6760000D02*
D03*
X6860000D02*
D03*
X6960000D02*
D03*
X7060000D02*
D03*
X7160000D02*
D03*
X7260000D02*
D03*
X5460000D02*
D03*
X5560000D02*
D03*
X5660000D02*
D03*
X5760000D02*
D03*
X5860000D02*
D03*
X5960000D02*
D03*
X6060000D02*
D03*
X6160000D02*
D03*
X7665000Y2940000D02*
D03*
X7765000D02*
D03*
X7865000D02*
D03*
X7965000D02*
D03*
X8065000D02*
D03*
X8165000D02*
D03*
X8265000D02*
D03*
X8365000D02*
D03*
X6560000D02*
D03*
X6660000D02*
D03*
X6760000D02*
D03*
X6860000D02*
D03*
X6960000D02*
D03*
X7060000D02*
D03*
X7160000D02*
D03*
X7260000D02*
D03*
X5460000D02*
D03*
X5560000D02*
D03*
X5660000D02*
D03*
X5760000D02*
D03*
X5860000D02*
D03*
X5960000D02*
D03*
X6060000D02*
D03*
X6160000D02*
D03*
X4370000D02*
D03*
X4470000D02*
D03*
X4570000D02*
D03*
X4670000D02*
D03*
X4770000D02*
D03*
X4870000D02*
D03*
X4970000D02*
D03*
X5070000D02*
D03*
X9390000Y3160000D02*
D03*
Y3260000D02*
D03*
Y3360000D02*
D03*
Y3460000D02*
D03*
Y3560000D02*
D03*
Y3660000D02*
D03*
Y3760000D02*
D03*
Y3860000D02*
D03*
Y3960000D02*
D03*
X9090000Y3160000D02*
D03*
Y3260000D02*
D03*
Y3360000D02*
D03*
Y3460000D02*
D03*
Y3560000D02*
D03*
Y3660000D02*
D03*
Y3760000D02*
D03*
Y3860000D02*
D03*
Y3960000D02*
D03*
X8740000Y2795000D02*
D03*
X8840000D02*
D03*
X8940000D02*
D03*
X9040000D02*
D03*
X9140000D02*
D03*
X9240000D02*
D03*
X9340000D02*
D03*
X9440000D02*
D03*
X12069252Y5470000D02*
D03*
X11969252D02*
D03*
X12187992D02*
D03*
X12287992D02*
D03*
X11209252Y6005000D02*
D03*
X11109252D02*
D03*
X11713386Y7700000D02*
D03*
X11613386D02*
D03*
X12140000Y4210000D02*
D03*
X12040000D02*
D03*
X11940000D02*
D03*
X12220000Y2465000D02*
D03*
Y2365000D02*
D03*
X12120000Y2465000D02*
D03*
Y2365000D02*
D03*
X12020000Y2465000D02*
D03*
Y2365000D02*
D03*
X12220000Y2725000D02*
D03*
Y2625000D02*
D03*
X12120000Y2725000D02*
D03*
Y2625000D02*
D03*
X12020000Y2725000D02*
D03*
Y2625000D02*
D03*
X12215000Y2995000D02*
D03*
Y2895000D02*
D03*
X12115000Y2995000D02*
D03*
Y2895000D02*
D03*
X12015000Y2995000D02*
D03*
Y2895000D02*
D03*
X12215000Y3260000D02*
D03*
Y3160000D02*
D03*
X12115000Y3260000D02*
D03*
Y3160000D02*
D03*
X12015000Y3260000D02*
D03*
Y3160000D02*
D03*
X12215000Y3525000D02*
D03*
Y3425000D02*
D03*
X12115000Y3525000D02*
D03*
Y3425000D02*
D03*
X12015000Y3525000D02*
D03*
Y3425000D02*
D03*
X12210000Y3795000D02*
D03*
Y3695000D02*
D03*
X12110000Y3795000D02*
D03*
Y3695000D02*
D03*
X12010000Y3795000D02*
D03*
Y3695000D02*
D03*
X11685000Y4475000D02*
D03*
X11585000D02*
D03*
X11485000D02*
D03*
X11385000D02*
D03*
X11285000D02*
D03*
X11185000D02*
D03*
X11085000D02*
D03*
X10985000D02*
D03*
X10885000D02*
D03*
X10785000D02*
D03*
X10685000D02*
D03*
X10585000D02*
D03*
X10485000D02*
D03*
X10385000D02*
D03*
X10285000D02*
D03*
X10185000D02*
D03*
X10085000D02*
D03*
X9985000D02*
D03*
X9885000D02*
D03*
X9785000D02*
D03*
X11685000Y4225000D02*
D03*
X11585000D02*
D03*
X11485000D02*
D03*
X11385000D02*
D03*
X11285000D02*
D03*
X11185000D02*
D03*
X11085000D02*
D03*
X10985000D02*
D03*
X10885000D02*
D03*
X10785000D02*
D03*
X10685000D02*
D03*
X10585000D02*
D03*
X10485000D02*
D03*
X10385000D02*
D03*
X10285000D02*
D03*
X10185000D02*
D03*
X10085000D02*
D03*
X9985000D02*
D03*
X9885000D02*
D03*
X9785000D02*
D03*
X9799000Y1580000D02*
D03*
X9899000D02*
D03*
X9999000D02*
D03*
X10099000D02*
D03*
X10199000D02*
D03*
X10299000D02*
D03*
X10399000D02*
D03*
X10499000D02*
D03*
X10599000D02*
D03*
X10699000D02*
D03*
X10799000D02*
D03*
X10899000D02*
D03*
X10999000D02*
D03*
X11099000D02*
D03*
X11199000D02*
D03*
X11299000D02*
D03*
X11399000D02*
D03*
X11499000D02*
D03*
X11599000D02*
D03*
X11699000D02*
D03*
X11685000Y3980000D02*
D03*
X11585000D02*
D03*
X11485000D02*
D03*
X11385000D02*
D03*
X11285000D02*
D03*
X11185000D02*
D03*
X11085000D02*
D03*
X10985000D02*
D03*
X10885000D02*
D03*
X10785000D02*
D03*
X10685000D02*
D03*
X10585000D02*
D03*
X10485000D02*
D03*
X10385000D02*
D03*
X10285000D02*
D03*
X10185000D02*
D03*
X10085000D02*
D03*
X9985000D02*
D03*
X9885000D02*
D03*
X9785000D02*
D03*
X9799000Y1085000D02*
D03*
X9899000D02*
D03*
X9999000D02*
D03*
X10099000D02*
D03*
X10199000D02*
D03*
X10299000D02*
D03*
X10399000D02*
D03*
X10499000D02*
D03*
X10599000D02*
D03*
X10699000D02*
D03*
X10799000D02*
D03*
X10899000D02*
D03*
X10999000D02*
D03*
X11099000D02*
D03*
X11199000D02*
D03*
X11299000D02*
D03*
X11399000D02*
D03*
X11499000D02*
D03*
X11599000D02*
D03*
X11699000D02*
D03*
X9799000Y1330000D02*
D03*
X9899000D02*
D03*
X9999000D02*
D03*
X10099000D02*
D03*
X10199000D02*
D03*
X10299000D02*
D03*
X10399000D02*
D03*
X10499000D02*
D03*
X10599000D02*
D03*
X10699000D02*
D03*
X10799000D02*
D03*
X10899000D02*
D03*
X10999000D02*
D03*
X11099000D02*
D03*
X11199000D02*
D03*
X11299000D02*
D03*
X11399000D02*
D03*
X11499000D02*
D03*
X11599000D02*
D03*
X11699000D02*
D03*
X1790000Y6970000D02*
D03*
X1690000D02*
D03*
X1975000Y6325000D02*
D03*
X1875000D02*
D03*
X1955000Y7275000D02*
D03*
X2055000D02*
D03*
X3670000Y8225000D02*
D03*
X3570000D02*
D03*
X3905000Y8230000D02*
D03*
X3805000D02*
D03*
X4145000Y8235000D02*
D03*
X4045000D02*
D03*
X4350000Y8230000D02*
D03*
X4250000D02*
D03*
X4550000Y8235000D02*
D03*
X4450000D02*
D03*
X7545000Y6950000D02*
D03*
Y7050000D02*
D03*
Y7150000D02*
D03*
Y7250000D02*
D03*
Y7350000D02*
D03*
Y7450000D02*
D03*
Y7550000D02*
D03*
Y7650000D02*
D03*
X7245000Y6950000D02*
D03*
Y7050000D02*
D03*
Y7150000D02*
D03*
Y7250000D02*
D03*
Y7350000D02*
D03*
Y7450000D02*
D03*
Y7550000D02*
D03*
Y7650000D02*
D03*
X9050000Y6950000D02*
D03*
Y7050000D02*
D03*
Y7150000D02*
D03*
Y7250000D02*
D03*
Y7350000D02*
D03*
Y7450000D02*
D03*
Y7550000D02*
D03*
Y7650000D02*
D03*
X8750000Y6950000D02*
D03*
Y7050000D02*
D03*
Y7150000D02*
D03*
Y7250000D02*
D03*
Y7350000D02*
D03*
Y7450000D02*
D03*
Y7550000D02*
D03*
Y7650000D02*
D03*
X5795000Y6950000D02*
D03*
Y7050000D02*
D03*
Y7150000D02*
D03*
Y7250000D02*
D03*
Y7350000D02*
D03*
Y7450000D02*
D03*
Y7550000D02*
D03*
Y7650000D02*
D03*
X5495000Y6950000D02*
D03*
Y7050000D02*
D03*
Y7150000D02*
D03*
Y7250000D02*
D03*
Y7350000D02*
D03*
Y7450000D02*
D03*
Y7550000D02*
D03*
Y7650000D02*
D03*
X6455000Y6950000D02*
D03*
Y7050000D02*
D03*
Y7150000D02*
D03*
Y7250000D02*
D03*
Y7350000D02*
D03*
Y7450000D02*
D03*
Y7550000D02*
D03*
Y7650000D02*
D03*
X6155000Y6950000D02*
D03*
Y7050000D02*
D03*
Y7150000D02*
D03*
Y7250000D02*
D03*
Y7350000D02*
D03*
Y7450000D02*
D03*
Y7550000D02*
D03*
Y7650000D02*
D03*
X9750000Y5165000D02*
D03*
Y5265000D02*
D03*
Y5365000D02*
D03*
Y5465000D02*
D03*
Y5565000D02*
D03*
Y5665000D02*
D03*
Y5765000D02*
D03*
Y5865000D02*
D03*
X9450000Y5165000D02*
D03*
Y5265000D02*
D03*
Y5365000D02*
D03*
Y5465000D02*
D03*
Y5565000D02*
D03*
Y5665000D02*
D03*
Y5765000D02*
D03*
Y5865000D02*
D03*
X9750000Y6105000D02*
D03*
Y6205000D02*
D03*
Y6305000D02*
D03*
Y6405000D02*
D03*
Y6505000D02*
D03*
Y6605000D02*
D03*
Y6705000D02*
D03*
Y6805000D02*
D03*
X9450000Y6105000D02*
D03*
Y6205000D02*
D03*
Y6305000D02*
D03*
Y6405000D02*
D03*
Y6505000D02*
D03*
Y6605000D02*
D03*
Y6705000D02*
D03*
Y6805000D02*
D03*
X5125000Y6950000D02*
D03*
Y7050000D02*
D03*
Y7150000D02*
D03*
Y7250000D02*
D03*
Y7350000D02*
D03*
Y7450000D02*
D03*
Y7550000D02*
D03*
Y7650000D02*
D03*
X4825000Y6950000D02*
D03*
Y7050000D02*
D03*
Y7150000D02*
D03*
Y7250000D02*
D03*
Y7350000D02*
D03*
Y7450000D02*
D03*
Y7550000D02*
D03*
Y7650000D02*
D03*
D52*
X4374882Y2080000D02*
D03*
Y1680000D02*
D03*
X4482756Y2080000D02*
D03*
Y1680000D02*
D03*
X4590630Y2080000D02*
D03*
Y1680000D02*
D03*
X4698504Y2080000D02*
D03*
Y1680000D02*
D03*
X4806378Y2080000D02*
D03*
Y1680000D02*
D03*
X4914252Y2080000D02*
D03*
Y1680000D02*
D03*
X5022126Y2080000D02*
D03*
Y1680000D02*
D03*
X5130000Y2080000D02*
D03*
Y1680000D02*
D03*
X5464882Y2075000D02*
D03*
Y1675000D02*
D03*
X5572756Y2075000D02*
D03*
Y1675000D02*
D03*
X5680630Y2075000D02*
D03*
Y1675000D02*
D03*
X5788504Y2075000D02*
D03*
Y1675000D02*
D03*
X5896378Y2075000D02*
D03*
Y1675000D02*
D03*
X6004252Y2075000D02*
D03*
Y1675000D02*
D03*
X6112126Y2075000D02*
D03*
Y1675000D02*
D03*
X6220000Y2075000D02*
D03*
Y1675000D02*
D03*
X6564882Y2080000D02*
D03*
Y1680000D02*
D03*
X6672756Y2080000D02*
D03*
Y1680000D02*
D03*
X6780630Y2080000D02*
D03*
Y1680000D02*
D03*
X6888504Y2080000D02*
D03*
Y1680000D02*
D03*
X6996378Y2080000D02*
D03*
Y1680000D02*
D03*
X7104252Y2080000D02*
D03*
Y1680000D02*
D03*
X7212126Y2080000D02*
D03*
Y1680000D02*
D03*
X7320000Y2080000D02*
D03*
Y1680000D02*
D03*
X7664882Y2080000D02*
D03*
Y1680000D02*
D03*
X7772756Y2080000D02*
D03*
Y1680000D02*
D03*
X7880630Y2080000D02*
D03*
Y1680000D02*
D03*
X7988504Y2080000D02*
D03*
Y1680000D02*
D03*
X8096378Y2080000D02*
D03*
Y1680000D02*
D03*
X8204252Y2080000D02*
D03*
Y1680000D02*
D03*
X8312126Y2080000D02*
D03*
Y1680000D02*
D03*
X8420000Y2080000D02*
D03*
Y1680000D02*
D03*
X4374882Y3185000D02*
D03*
Y3585000D02*
D03*
X4482756Y3185000D02*
D03*
Y3585000D02*
D03*
X4590630Y3185000D02*
D03*
Y3585000D02*
D03*
X4698504Y3185000D02*
D03*
Y3585000D02*
D03*
X4806378Y3185000D02*
D03*
Y3585000D02*
D03*
X4914252Y3185000D02*
D03*
Y3585000D02*
D03*
X5022126Y3185000D02*
D03*
Y3585000D02*
D03*
X5130000Y3185000D02*
D03*
Y3585000D02*
D03*
X5559882Y3175000D02*
D03*
Y3575000D02*
D03*
X5667756Y3175000D02*
D03*
Y3575000D02*
D03*
X5775630Y3175000D02*
D03*
Y3575000D02*
D03*
X5883504Y3175000D02*
D03*
Y3575000D02*
D03*
X5991378Y3175000D02*
D03*
Y3575000D02*
D03*
X6099252Y3175000D02*
D03*
Y3575000D02*
D03*
X6207126Y3175000D02*
D03*
Y3575000D02*
D03*
X6564882Y3185000D02*
D03*
Y3585000D02*
D03*
X6672756Y3185000D02*
D03*
Y3585000D02*
D03*
X6780630Y3185000D02*
D03*
Y3585000D02*
D03*
X6888504Y3185000D02*
D03*
Y3585000D02*
D03*
X6996378Y3185000D02*
D03*
Y3585000D02*
D03*
X7104252Y3185000D02*
D03*
Y3585000D02*
D03*
X7212126Y3185000D02*
D03*
Y3585000D02*
D03*
X7320000Y3185000D02*
D03*
Y3585000D02*
D03*
X7664882Y3185000D02*
D03*
Y3585000D02*
D03*
X7772756Y3185000D02*
D03*
Y3585000D02*
D03*
X7880630Y3185000D02*
D03*
Y3585000D02*
D03*
X7988504Y3185000D02*
D03*
Y3585000D02*
D03*
X8096378Y3185000D02*
D03*
Y3585000D02*
D03*
X8204252Y3185000D02*
D03*
Y3585000D02*
D03*
X8312126Y3185000D02*
D03*
Y3585000D02*
D03*
X8420000Y3185000D02*
D03*
Y3585000D02*
D03*
X5460000Y3175000D02*
D03*
Y3575000D02*
D03*
X2255000Y6290000D02*
D03*
Y5990000D02*
D03*
X2250000Y6780000D02*
D03*
Y7080000D02*
D03*
X1090000Y1145000D02*
D03*
Y1445000D02*
D03*
X2020000Y2530000D02*
D03*
Y2830000D02*
D03*
X2445000Y2510000D02*
D03*
Y2810000D02*
D03*
X2840000Y2530000D02*
D03*
Y2830000D02*
D03*
X3270000Y2545000D02*
D03*
Y2845000D02*
D03*
X3615000Y2555000D02*
D03*
Y2855000D02*
D03*
D53*
X10834252Y6605000D02*
D03*
D54*
X11042402Y7750000D02*
D03*
D55*
X10624252Y6815000D02*
D03*
D56*
X10719252Y6694567D02*
D03*
D57*
X10724252Y6910000D02*
D03*
D58*
X10719252Y6060000D02*
D03*
D59*
X10669252Y6405000D02*
D03*
D60*
X11014252Y6765433D02*
D03*
D61*
X10644252Y6575000D02*
D03*
D62*
X11289252Y6095000D02*
D03*
D63*
X11674252Y6755000D02*
D03*
D64*
X12204252Y7775000D02*
D03*
D65*
X11864252Y6605000D02*
D03*
D66*
X10889252Y6480000D02*
D03*
D67*
X11064252Y6435000D02*
D03*
D68*
X10936102Y7675000D02*
D03*
D69*
X11514252Y6690000D02*
D03*
D70*
X11154252Y7765000D02*
D03*
D71*
X11639252Y6490000D02*
D03*
D72*
X11359252Y6295000D02*
D03*
D73*
X11214252Y6970000D02*
D03*
D74*
X10435000Y3685000D02*
D03*
Y3585000D02*
D03*
Y3485000D02*
D03*
Y3385000D02*
D03*
Y3285000D02*
D03*
Y3185000D02*
D03*
Y3085000D02*
D03*
Y2985000D02*
D03*
Y2885000D02*
D03*
Y2785000D02*
D03*
Y2685000D02*
D03*
Y2585000D02*
D03*
Y2485000D02*
D03*
Y2385000D02*
D03*
Y2285000D02*
D03*
Y2185000D02*
D03*
Y2085000D02*
D03*
Y1985000D02*
D03*
Y1885000D02*
D03*
Y1785000D02*
D03*
X11035000D02*
D03*
Y1885000D02*
D03*
Y1985000D02*
D03*
Y2085000D02*
D03*
Y2185000D02*
D03*
Y2285000D02*
D03*
Y2385000D02*
D03*
Y2485000D02*
D03*
Y2585000D02*
D03*
Y2685000D02*
D03*
Y2785000D02*
D03*
Y2885000D02*
D03*
Y2985000D02*
D03*
Y3085000D02*
D03*
Y3185000D02*
D03*
Y3285000D02*
D03*
Y3385000D02*
D03*
Y3485000D02*
D03*
Y3585000D02*
D03*
Y3685000D02*
D03*
D75*
X2570000Y7050000D02*
D03*
Y7650000D02*
D03*
X3090000Y6890000D02*
D03*
Y6290000D02*
D03*
X2570000Y6270000D02*
D03*
Y6870000D02*
D03*
Y6090000D02*
D03*
Y5490000D02*
D03*
D76*
X1690000Y5530000D02*
D03*
X1090000D02*
D03*
X1690000Y5900000D02*
D03*
X1090000D02*
D03*
X1690000Y6270000D02*
D03*
X1090000D02*
D03*
D77*
X2250000Y5490000D02*
D03*
Y7650000D02*
D03*
Y7510000D02*
D03*
X2155000Y5700000D02*
D03*
D78*
X5400000Y8115000D02*
D03*
X5100000D02*
D03*
D79*
X1930000Y4240000D02*
D03*
D80*
X2085000Y4200000D02*
D03*
D81*
Y4120000D02*
D03*
D82*
X1930000Y4080000D02*
D03*
D83*
Y4160000D02*
D03*
D84*
X2350000Y1440000D02*
D03*
X2450000D02*
D03*
X1935000Y1425000D02*
D03*
X2035000D02*
D03*
X2710000Y1445000D02*
D03*
X2810000D02*
D03*
X3135000Y1460000D02*
D03*
X3235000D02*
D03*
X3505000Y1445000D02*
D03*
X3605000D02*
D03*
X1920000Y2105000D02*
D03*
X2020000D02*
D03*
X2345000Y2080000D02*
D03*
X2445000D02*
D03*
X2735000Y2060000D02*
D03*
X2835000D02*
D03*
X3115000Y2065000D02*
D03*
X3215000D02*
D03*
X3515000Y2090000D02*
D03*
X3615000D02*
D03*
D85*
X1570000Y3160000D02*
D03*
D86*
X2470000D02*
D03*
D87*
X1725000Y5070000D02*
D03*
D88*
X1725000Y4873150D02*
D03*
D89*
X1410000Y4878150D02*
D03*
D90*
X1410000Y5075000D02*
D03*
D91*
X1916575Y3805000D02*
D03*
D92*
X2113425Y3805000D02*
D03*
D93*
X1280000Y3805000D02*
D03*
D94*
Y3605000D02*
D03*
D95*
Y4250000D02*
D03*
X4965000Y2766000D02*
D03*
X6590000Y3855000D02*
D03*
X7084190Y2477000D02*
D03*
X4410000Y3980000D02*
D03*
X11999252Y4805000D02*
D03*
X12144252D02*
D03*
X11704252Y5015000D02*
D03*
X12144252Y4920000D02*
D03*
X11967559Y5170000D02*
D03*
X10669252Y6205866D02*
D03*
X5085000Y6766000D02*
D03*
X6832000Y6925000D02*
D03*
X8990000Y6105000D02*
D03*
X5342000Y5870000D02*
D03*
X5900000Y5470000D02*
D03*
X5455000Y5820000D02*
D03*
X5235000Y6070000D02*
D03*
X5065000Y5345000D02*
D03*
X9333000Y5340000D02*
D03*
X9159000Y6955000D02*
D03*
X5568000Y6857000D02*
D03*
X6236472Y7734528D02*
D03*
X7917000Y5336000D02*
D03*
X7480000Y5355000D02*
D03*
X6735000Y7455000D02*
D03*
X6339000Y5709000D02*
D03*
X6780000Y8115000D02*
D03*
X7500000Y7100000D02*
D03*
X9517000Y5265000D02*
D03*
X8776000Y5865000D02*
D03*
X9558000Y5365000D02*
D03*
X9555000Y6061000D02*
D03*
X7867000Y5165000D02*
D03*
X8675000Y6135000D02*
D03*
X8750000Y6105000D02*
D03*
X5125000Y5620000D02*
D03*
X6328000Y7100000D02*
D03*
X6617000Y7583000D02*
D03*
X8750000Y7870000D02*
D03*
X5715000D02*
D03*
X5967000Y7689000D02*
D03*
D96*
X11210945Y6491693D02*
D03*
Y6535000D02*
D03*
Y6578307D02*
D03*
X11254252Y6491693D02*
D03*
Y6535000D02*
D03*
Y6578307D02*
D03*
X11297559Y6491693D02*
D03*
Y6535000D02*
D03*
Y6578307D02*
D03*
D97*
X1380000Y1790000D02*
D03*
Y1740000D02*
D03*
Y1690000D02*
D03*
%TF.MD5,E78FD0D68B085D31CC3F4993D5758CFA*%
M02*
