G04 Layer_Color=128*
%FSLAX26Y26*%
%MOIN*%
%TF.FileFunction,Drillmap*%
%TF.Part,Single*%
G01*
G75*
%TA.AperFunction,NonConductor*%
%ADD22C,0.005000*%
D22*
X1747284Y1285000D02*
X1782716D01*
X1765000Y1267284D02*
Y1302716D01*
X1747284Y1385000D02*
X1782716D01*
X1765000Y1367284D02*
Y1402716D01*
X1747284Y1166260D02*
X1782716D01*
X1765000Y1148543D02*
Y1183976D01*
X1747284Y1066260D02*
X1782716D01*
X1765000Y1048543D02*
Y1083976D01*
X1442284Y1510000D02*
X1477716D01*
X1460000Y1492284D02*
Y1527716D01*
X1442284Y1610000D02*
X1477716D01*
X1460000Y1592284D02*
Y1627716D01*
X1542284Y1510000D02*
X1577716D01*
X1560000Y1492284D02*
Y1527716D01*
X1542284Y1610000D02*
X1577716D01*
X1560000Y1592284D02*
Y1627716D01*
X1642284Y1510000D02*
X1677716D01*
X1660000Y1492284D02*
Y1527716D01*
X1642284Y1610000D02*
X1677716D01*
X1660000Y1592284D02*
Y1627716D01*
X1451000Y1386693D02*
X1479000D01*
X1465000Y1372693D02*
Y1400693D01*
X1201000Y1210000D02*
X1229000D01*
X1215000Y1196000D02*
Y1224000D01*
X1296000Y1650000D02*
X1324000D01*
X1310000Y1636000D02*
Y1664000D01*
X1086000Y1210000D02*
X1114000D01*
X1100000Y1196000D02*
Y1224000D01*
X1086000Y1355000D02*
X1114000D01*
X1100000Y1341000D02*
Y1369000D01*
%TF.MD5,B9FAABDC1F0A024981278031F6042F80*%
M02*
