G04 Layer_Color=128*
%FSLAX25Y25*%
%MOIN*%
G70*
G01*
G75*
%ADD19C,0.00200*%
D19*
X174728Y128500D02*
X178272D01*
X176500Y126728D02*
Y130272D01*
X174728Y138500D02*
X178272D01*
X176500Y136728D02*
Y140272D01*
X174728Y116626D02*
X178272D01*
X176500Y114854D02*
Y118398D01*
X174728Y106626D02*
X178272D01*
X176500Y104854D02*
Y108398D01*
X144228Y151000D02*
X147772D01*
X146000Y149228D02*
Y152772D01*
X144228Y161000D02*
X147772D01*
X146000Y159228D02*
Y162772D01*
X154228Y151000D02*
X157772D01*
X156000Y149228D02*
Y152772D01*
X154228Y161000D02*
X157772D01*
X156000Y159228D02*
Y162772D01*
X164228Y151000D02*
X167772D01*
X166000Y149228D02*
Y152772D01*
X164228Y161000D02*
X167772D01*
X166000Y159228D02*
Y162772D01*
X120100Y121000D02*
X122900D01*
X121500Y119600D02*
Y122400D01*
X144600Y138500D02*
X147400D01*
X146000Y137100D02*
Y139900D01*
X129600Y165000D02*
X132400D01*
X131000Y163600D02*
Y166400D01*
X108600Y121000D02*
X111400D01*
X110000Y119600D02*
Y122400D01*
X108600Y135500D02*
X111400D01*
X110000Y134100D02*
Y136900D01*
M02*
