G04 Layer_Physical_Order=1*
G04 Layer_Color=255*
%FSLAX26Y26*%
%MOIN*%
%TF.FileFunction,Copper,L1,Top,Signal*%
%TF.Part,Single*%
G01*
G75*
%TA.AperFunction,SMDPad,CuDef*%
%ADD10R,0.055118X0.043307*%
%TA.AperFunction,SMDPad,SMDef*%
%ADD11R,0.047244X0.019685*%
%ADD12R,0.019685X0.047244*%
%TA.AperFunction,Conductor*%
%ADD13C,0.010000*%
%TA.AperFunction,NonConductor*%
%ADD14C,0.010000*%
%ADD15C,0.006000*%
%TA.AperFunction,ComponentPad*%
%ADD16R,0.059055X0.059055*%
%ADD17C,0.059055*%
%ADD18R,0.059055X0.059055*%
%TA.AperFunction,ViaPad*%
%ADD19C,0.050000*%
D10*
X1375000Y1144528D02*
D03*
Y1085473D02*
D03*
X1470000Y1144528D02*
D03*
Y1085473D02*
D03*
D11*
X1171693Y1311260D02*
D03*
Y1342756D02*
D03*
Y1374252D02*
D03*
Y1405748D02*
D03*
Y1437244D02*
D03*
Y1468740D02*
D03*
X1258307D02*
D03*
Y1437244D02*
D03*
Y1405748D02*
D03*
Y1374252D02*
D03*
Y1342756D02*
D03*
Y1311260D02*
D03*
D12*
X1215000Y1472677D02*
D03*
Y1307323D02*
D03*
D13*
X1171693Y1468740D02*
Y1470000D01*
X1375000Y1085473D02*
Y1090000D01*
X1171693Y1437244D02*
Y1440000D01*
X1050000Y1405748D02*
X1171693D01*
X1050000Y1311260D02*
X1171693D01*
X1258307Y1435000D02*
Y1437244D01*
X1375000Y1144528D02*
X1470000D01*
X1171693Y1342756D02*
Y1374252D01*
X1215000D02*
Y1434055D01*
X1171693D02*
X1215000D01*
X1171693Y1374252D02*
X1215000D01*
X1258307D01*
X1050000Y1090000D02*
X1375000D01*
X1050000D02*
Y1468740D01*
X1171693D01*
X1215000Y1210000D02*
Y1307323D01*
X1100000Y1374252D02*
X1171693D01*
X1100000Y1355000D02*
Y1374252D01*
Y1145000D02*
X1375000D01*
X1100000D02*
Y1210000D01*
Y1230000D01*
X1258307Y1468740D02*
X1310000D01*
Y1650000D01*
X1560000Y1435000D02*
Y1510000D01*
Y1610000D02*
Y1710000D01*
X1215000Y1472677D02*
Y1710000D01*
X1560000D01*
X1258307Y1311260D02*
X1680000D01*
Y1280000D02*
Y1311260D01*
Y1280000D02*
X1760000D01*
X1470000Y1145000D02*
X1695000D01*
Y1166260D01*
X1765000D01*
X1695000Y1066260D02*
X1765000D01*
X1695000D02*
Y1080000D01*
X1375000D02*
X1695000D01*
X1258307Y1374252D02*
Y1375000D01*
Y1405748D01*
Y1375000D02*
X1448307D01*
X1258307Y1435000D02*
X1560000D01*
X1448307Y1375000D02*
X1465000Y1391693D01*
D14*
X1258307Y1342756D02*
X1580000D01*
X1680000D01*
X1700000Y1385000D02*
X1760000D01*
X1680000Y1342756D02*
Y1385000D01*
X1700000D01*
X1005000Y1002520D02*
X1835000D01*
X1005000D02*
Y1765000D01*
X1835000D01*
Y1002520D02*
Y1765000D01*
X1005924Y1830990D02*
X1170000D01*
X1671848D02*
X1835924D01*
X1005924D02*
X1065924Y1850990D01*
X1005924Y1830990D02*
X1065924Y1810990D01*
X1775924Y1850990D02*
X1835924Y1830990D01*
X1775924Y1810990D02*
X1835924Y1830990D01*
X1005924Y1820990D02*
Y1840990D01*
X1835924Y1820990D02*
Y1840990D01*
X1975000Y1002520D02*
Y1047863D01*
Y1719656D02*
Y1765000D01*
X1955000Y1062520D02*
X1975000Y1002520D01*
X1995000Y1062520D01*
X1955000Y1705000D02*
X1975000Y1765000D01*
X1995000Y1705000D01*
X1965000Y1002520D02*
X1985000D01*
X1965000Y1765000D02*
X1985000D01*
D15*
X1180000Y1844984D02*
X1189997Y1854981D01*
X1209990D01*
X1219987Y1844984D01*
Y1834987D01*
X1209990Y1824990D01*
X1219987Y1814994D01*
Y1804997D01*
X1209990Y1795000D01*
X1189997D01*
X1180000Y1804997D01*
Y1814994D01*
X1189997Y1824990D01*
X1180000Y1834987D01*
Y1844984D01*
X1189997Y1824990D02*
X1209990D01*
X1239981Y1844984D02*
X1249977Y1854981D01*
X1269971D01*
X1279968Y1844984D01*
Y1834987D01*
X1269971Y1824990D01*
X1259974D01*
X1269971D01*
X1279968Y1814994D01*
Y1804997D01*
X1269971Y1795000D01*
X1249977D01*
X1239981Y1804997D01*
X1299961Y1844984D02*
X1309958Y1854981D01*
X1329951D01*
X1339948Y1844984D01*
Y1804997D01*
X1329951Y1795000D01*
X1309958D01*
X1299961Y1804997D01*
Y1844984D01*
X1439916Y1795000D02*
X1419922Y1814994D01*
Y1834987D01*
X1439916Y1854981D01*
X1469906Y1795000D02*
Y1834987D01*
X1479903D01*
X1489900Y1824990D01*
Y1795000D01*
Y1824990D01*
X1499897Y1834987D01*
X1509893Y1824990D01*
Y1795000D01*
X1529887D02*
X1549880D01*
X1539884D01*
Y1834987D01*
X1529887D01*
X1579871Y1795000D02*
X1599864D01*
X1589867D01*
Y1854981D01*
X1579871D01*
X1629854Y1795000D02*
X1649848Y1814994D01*
Y1834987D01*
X1629854Y1854981D01*
X1951010Y1057863D02*
Y1097850D01*
X1961006D01*
X2000994Y1057863D01*
X2010990D01*
X1951010Y1157831D02*
X1961006Y1137837D01*
X1981000Y1117844D01*
X2000994D01*
X2010990Y1127841D01*
Y1147834D01*
X2000994Y1157831D01*
X1990997D01*
X1981000Y1147834D01*
Y1117844D01*
X2010990Y1217812D02*
Y1177824D01*
X1971003Y1217812D01*
X1961006D01*
X1951010Y1207815D01*
Y1187821D01*
X1961006Y1177824D01*
X2010990Y1237805D02*
X2000994D01*
Y1247802D01*
X2010990D01*
Y1237805D01*
Y1317779D02*
X1951010D01*
X1981000Y1287789D01*
Y1327776D01*
X1961006Y1347770D02*
X1951010Y1357766D01*
Y1377760D01*
X1961006Y1387757D01*
X1971003D01*
X1981000Y1377760D01*
X1990997Y1387757D01*
X2000994D01*
X2010990Y1377760D01*
Y1357766D01*
X2000994Y1347770D01*
X1990997D01*
X1981000Y1357766D01*
X1971003Y1347770D01*
X1961006D01*
X1981000Y1357766D02*
Y1377760D01*
X2010990Y1487724D02*
X1990997Y1467731D01*
X1971003D01*
X1951010Y1487724D01*
X2010990Y1517715D02*
X1971003D01*
Y1527711D01*
X1981000Y1537708D01*
X2010990D01*
X1981000D01*
X1971003Y1547705D01*
X1981000Y1557702D01*
X2010990D01*
Y1577695D02*
Y1597689D01*
Y1587692D01*
X1971003D01*
Y1577695D01*
X2010990Y1627679D02*
Y1647672D01*
Y1637676D01*
X1951010D01*
Y1627679D01*
X2010990Y1677663D02*
X1990997Y1697656D01*
X1971003D01*
X1951010Y1677663D01*
D16*
X1660000Y1610000D02*
D03*
D17*
Y1510000D02*
D03*
X1560000Y1610000D02*
D03*
Y1510000D02*
D03*
X1460000Y1610000D02*
D03*
Y1510000D02*
D03*
X1765000Y1166260D02*
D03*
Y1285000D02*
D03*
D18*
Y1066260D02*
D03*
Y1385000D02*
D03*
D19*
X1100000Y1355000D02*
D03*
Y1210000D02*
D03*
X1310000Y1650000D02*
D03*
X1215000Y1210000D02*
D03*
X1465000Y1386693D02*
D03*
%TF.MD5,54A2194670FB803101B5BA0C51BA1D4D*%
M02*
