G04 Layer_Color=0*
%FSLAX25Y25*%
%MOIN*%
%TF.FileFunction,PTH,Drill*%
%TF.Part,Single*%
G01*
G75*
%TA.AperFunction,ComponentDrill*%
%ADD17C,0.03543*%
%TA.AperFunction,ComponentDrill*%
%ADD18C,0.03347*%
%TA.AperFunction,ComponentDrill*%
%ADD19C,0.03543*%
%TA.AperFunction,ViaDrill*%
%ADD20C,0.02800*%
D17*
X753500Y685000D02*
D03*
Y675000D02*
D03*
Y665000D02*
D03*
Y655000D02*
D03*
Y645000D02*
D03*
Y635000D02*
D03*
Y625000D02*
D03*
Y615000D02*
D03*
X777500Y501000D02*
D03*
Y511000D02*
D03*
Y521000D02*
D03*
Y531000D02*
D03*
Y541000D02*
D03*
X777000Y429500D02*
D03*
Y439500D02*
D03*
Y449500D02*
D03*
Y459500D02*
D03*
Y469500D02*
D03*
X386500Y702500D02*
D03*
X376500D02*
D03*
X366500D02*
D03*
X356500D02*
D03*
X346500D02*
D03*
X336500D02*
D03*
X326500D02*
D03*
X316500D02*
D03*
X386500Y672500D02*
D03*
X376500D02*
D03*
X366500D02*
D03*
X356500D02*
D03*
X346500D02*
D03*
X336500D02*
D03*
X326500D02*
D03*
X316500D02*
D03*
X386500Y550500D02*
D03*
X376500D02*
D03*
X366500D02*
D03*
X356500D02*
D03*
X346500D02*
D03*
X336500D02*
D03*
X326500D02*
D03*
X316500D02*
D03*
X386500Y520500D02*
D03*
X376500D02*
D03*
X366500D02*
D03*
X356500D02*
D03*
X346500D02*
D03*
X336500D02*
D03*
X326500D02*
D03*
X316500D02*
D03*
X498310Y702500D02*
D03*
X488310D02*
D03*
X478310D02*
D03*
X468310D02*
D03*
X458310D02*
D03*
X448310D02*
D03*
X438310D02*
D03*
X428310D02*
D03*
X498310Y672500D02*
D03*
X488310D02*
D03*
X478310D02*
D03*
X468310D02*
D03*
X458310D02*
D03*
X448310D02*
D03*
X438310D02*
D03*
X428310D02*
D03*
X498310Y550500D02*
D03*
X488310D02*
D03*
X478310D02*
D03*
X468310D02*
D03*
X458310D02*
D03*
X448310D02*
D03*
X438310D02*
D03*
X428310D02*
D03*
X498310Y520500D02*
D03*
X488310D02*
D03*
X478310D02*
D03*
X468310D02*
D03*
X458310D02*
D03*
X448310D02*
D03*
X438310D02*
D03*
X428310D02*
D03*
X610119Y702500D02*
D03*
X600119D02*
D03*
X590119D02*
D03*
X580119D02*
D03*
X570119D02*
D03*
X560119D02*
D03*
X550119D02*
D03*
X540119D02*
D03*
X610119Y672500D02*
D03*
X600119D02*
D03*
X590119D02*
D03*
X580119D02*
D03*
X570119D02*
D03*
X560119D02*
D03*
X550119D02*
D03*
X540119D02*
D03*
X610119Y550500D02*
D03*
X600119D02*
D03*
X590119D02*
D03*
X580119D02*
D03*
X570119D02*
D03*
X560119D02*
D03*
X550119D02*
D03*
X540119D02*
D03*
X610119Y520500D02*
D03*
X600119D02*
D03*
X590119D02*
D03*
X580119D02*
D03*
X570119D02*
D03*
X560119D02*
D03*
X550119D02*
D03*
X540119D02*
D03*
X721929Y702500D02*
D03*
X711929D02*
D03*
X701929D02*
D03*
X691929D02*
D03*
X681929D02*
D03*
X671929D02*
D03*
X661929D02*
D03*
X651929D02*
D03*
X721929Y672500D02*
D03*
X711929D02*
D03*
X701929D02*
D03*
X691929D02*
D03*
X681929D02*
D03*
X671929D02*
D03*
X661929D02*
D03*
X651929D02*
D03*
X721929Y550500D02*
D03*
X711929D02*
D03*
X701929D02*
D03*
X691929D02*
D03*
X681929D02*
D03*
X671929D02*
D03*
X661929D02*
D03*
X651929D02*
D03*
X721929Y520500D02*
D03*
X711929D02*
D03*
X701929D02*
D03*
X691929D02*
D03*
X681929D02*
D03*
X671929D02*
D03*
X661929D02*
D03*
X651929D02*
D03*
D18*
X416000Y612000D02*
D03*
Y652000D02*
D03*
X470425Y502000D02*
D03*
Y462000D02*
D03*
X481213Y502000D02*
D03*
Y462000D02*
D03*
X492000Y502000D02*
D03*
Y462000D02*
D03*
X459638Y502000D02*
D03*
Y462000D02*
D03*
X307488Y613000D02*
D03*
Y653000D02*
D03*
Y502500D02*
D03*
Y462500D02*
D03*
X318276Y613000D02*
D03*
Y653000D02*
D03*
Y502500D02*
D03*
Y462500D02*
D03*
X329063Y613000D02*
D03*
Y653000D02*
D03*
Y502500D02*
D03*
Y462500D02*
D03*
X339850Y613000D02*
D03*
Y653000D02*
D03*
Y502500D02*
D03*
Y462500D02*
D03*
X350638Y613000D02*
D03*
Y653000D02*
D03*
Y502500D02*
D03*
Y462500D02*
D03*
X361425Y613000D02*
D03*
Y653000D02*
D03*
Y502500D02*
D03*
Y462500D02*
D03*
X372213Y613000D02*
D03*
Y653000D02*
D03*
Y502500D02*
D03*
Y462500D02*
D03*
X383000Y613000D02*
D03*
Y653000D02*
D03*
Y502500D02*
D03*
Y462500D02*
D03*
X416488Y502000D02*
D03*
Y462000D02*
D03*
X425988Y612000D02*
D03*
Y652000D02*
D03*
X427276Y502000D02*
D03*
Y462000D02*
D03*
X436776Y612000D02*
D03*
Y652000D02*
D03*
X438063Y502000D02*
D03*
Y462000D02*
D03*
X447563Y612000D02*
D03*
Y652000D02*
D03*
X448850Y502000D02*
D03*
Y462000D02*
D03*
X458350Y612000D02*
D03*
Y652000D02*
D03*
X469138Y612000D02*
D03*
Y652000D02*
D03*
X479925Y612000D02*
D03*
Y652000D02*
D03*
X490713Y612000D02*
D03*
Y652000D02*
D03*
X526488Y613000D02*
D03*
Y653000D02*
D03*
Y502500D02*
D03*
Y462500D02*
D03*
X537276Y613000D02*
D03*
Y653000D02*
D03*
Y502500D02*
D03*
Y462500D02*
D03*
X548063Y613000D02*
D03*
Y653000D02*
D03*
Y502500D02*
D03*
Y462500D02*
D03*
X558850Y613000D02*
D03*
Y653000D02*
D03*
Y502500D02*
D03*
Y462500D02*
D03*
X569638Y613000D02*
D03*
Y653000D02*
D03*
Y502500D02*
D03*
Y462500D02*
D03*
X580425Y613000D02*
D03*
Y653000D02*
D03*
Y502500D02*
D03*
Y462500D02*
D03*
X591213Y613000D02*
D03*
Y653000D02*
D03*
Y502500D02*
D03*
Y462500D02*
D03*
X602000Y613000D02*
D03*
Y653000D02*
D03*
Y502500D02*
D03*
Y462500D02*
D03*
X636488Y613000D02*
D03*
Y653000D02*
D03*
Y502500D02*
D03*
Y462500D02*
D03*
X647276Y613000D02*
D03*
Y653000D02*
D03*
Y502500D02*
D03*
Y462500D02*
D03*
X658063Y613000D02*
D03*
Y653000D02*
D03*
Y502500D02*
D03*
Y462500D02*
D03*
X668850Y613000D02*
D03*
Y653000D02*
D03*
Y502500D02*
D03*
Y462500D02*
D03*
X679638Y613000D02*
D03*
Y653000D02*
D03*
Y502500D02*
D03*
Y462500D02*
D03*
X690425Y613000D02*
D03*
Y653000D02*
D03*
Y502500D02*
D03*
Y462500D02*
D03*
X701213Y613000D02*
D03*
Y653000D02*
D03*
Y502500D02*
D03*
Y462500D02*
D03*
X712000Y613000D02*
D03*
Y653000D02*
D03*
Y502500D02*
D03*
Y462500D02*
D03*
D19*
X307000Y588500D02*
D03*
X317000D02*
D03*
X327000D02*
D03*
X337000D02*
D03*
X347000D02*
D03*
X357000D02*
D03*
X367000D02*
D03*
X377000D02*
D03*
X307000Y446500D02*
D03*
X317000D02*
D03*
X327000D02*
D03*
X337000D02*
D03*
X347000D02*
D03*
X357000D02*
D03*
X367000D02*
D03*
X377000D02*
D03*
X416000Y588500D02*
D03*
X426000D02*
D03*
X436000D02*
D03*
X446000D02*
D03*
X456000D02*
D03*
X466000D02*
D03*
X476000D02*
D03*
X486000D02*
D03*
X416000Y446500D02*
D03*
X426000D02*
D03*
X436000D02*
D03*
X446000D02*
D03*
X456000D02*
D03*
X466000D02*
D03*
X476000D02*
D03*
X486000D02*
D03*
X526000Y588500D02*
D03*
X536000D02*
D03*
X546000D02*
D03*
X556000D02*
D03*
X566000D02*
D03*
X576000D02*
D03*
X586000D02*
D03*
X596000D02*
D03*
X526000Y446500D02*
D03*
X536000D02*
D03*
X546000D02*
D03*
X556000D02*
D03*
X566000D02*
D03*
X576000D02*
D03*
X586000D02*
D03*
X596000D02*
D03*
X744000Y574000D02*
D03*
X754000D02*
D03*
X764000D02*
D03*
X774000D02*
D03*
X784000D02*
D03*
X794000D02*
D03*
X804000D02*
D03*
X814000D02*
D03*
X809000Y610500D02*
D03*
Y620500D02*
D03*
Y630500D02*
D03*
Y640500D02*
D03*
Y650500D02*
D03*
Y660500D02*
D03*
Y670500D02*
D03*
Y680500D02*
D03*
Y690500D02*
D03*
X779000Y610500D02*
D03*
Y620500D02*
D03*
Y630500D02*
D03*
Y640500D02*
D03*
Y650500D02*
D03*
Y660500D02*
D03*
Y670500D02*
D03*
Y680500D02*
D03*
Y690500D02*
D03*
X636500Y588500D02*
D03*
X646500D02*
D03*
X656500D02*
D03*
X666500D02*
D03*
X676500D02*
D03*
X686500D02*
D03*
X696500D02*
D03*
X706500D02*
D03*
X636500Y446500D02*
D03*
X646500D02*
D03*
X656500D02*
D03*
X666500D02*
D03*
X676500D02*
D03*
X686500D02*
D03*
X696500D02*
D03*
X706500D02*
D03*
D20*
X311000Y692500D02*
D03*
X578419Y542200D02*
D03*
X529000Y680000D02*
D03*
X366500Y571100D02*
D03*
%TF.MD5,68A5C8077D5850BA75E28C0F46578C87*%
M02*
