G04 Layer_Color=0*
%FSLAX26Y26*%
%MOIN*%
%TF.FileFunction,Plated,1,2,PTH,Drill*%
%TF.Part,Single*%
G01*
G75*
%TA.AperFunction,OtherDrill,Pad Free-36 (1685mil,2430mil)*%
%ADD32C,0.030000*%
%TA.AperFunction,OtherDrill,Pad Free-35 (2830mil,2221.85mil)*%
%ADD33C,0.030000*%
%TA.AperFunction,OtherDrill,Pad Free-33 (1895mil,2640mil)*%
%ADD34C,0.030000*%
%TA.AperFunction,OtherDrill,Pad Free-31 (1774.567mil,2545mil)*%
%ADD35C,0.030000*%
%TA.AperFunction,OtherDrill,Pad Free-30 (1990mil,2540mil)*%
%ADD36C,0.030000*%
%TA.AperFunction,OtherDrill,Pad Free-29 (1140mil,2545mil)*%
%ADD37C,0.030000*%
%TA.AperFunction,OtherDrill,Pad Free-28 (1485mil,2595mil)*%
%ADD38C,0.030000*%
%TA.AperFunction,OtherDrill,Pad Free-27 (1845.433mil,2250mil)*%
%ADD39C,0.030000*%
%TA.AperFunction,OtherDrill,Pad Free-26 (1655mil,2620mil)*%
%ADD40C,0.030000*%
%TA.AperFunction,OtherDrill,Pad Free-25 (1175mil,1975mil)*%
%ADD41C,0.030000*%
%TA.AperFunction,OtherDrill,Pad Free-24 (1835mil,1590mil)*%
%ADD42C,0.030000*%
%TA.AperFunction,OtherDrill,Pad Free-23 (2855mil,1060mil)*%
%ADD43C,0.030000*%
%TA.AperFunction,OtherDrill,Pad Free-22 (1685mil,1400mil)*%
%ADD44C,0.030000*%
%TA.AperFunction,OtherDrill,Pad Free-19 (1560mil,2375mil)*%
%ADD45C,0.030000*%
%TA.AperFunction,OtherDrill,Pad Free-18 (1515mil,2200mil)*%
%ADD46C,0.030000*%
%TA.AperFunction,OtherDrill,Pad Free-16 (2755mil,2328.15mil)*%
%ADD47C,0.030000*%
%TA.AperFunction,OtherDrill,Pad Free-15 (1770mil,1750mil)*%
%ADD48C,0.030000*%
%TA.AperFunction,OtherDrill,Pad Free-14 (2845mil,2110mil)*%
%ADD49C,0.030000*%
%TA.AperFunction,OtherDrill,Pad Free-13 (1570mil,1625mil)*%
%ADD50C,0.030000*%
%TA.AperFunction,OtherDrill,Pad Free-10 (1375mil,1905mil)*%
%ADD51C,0.030000*%
%TA.AperFunction,OtherDrill,Pad Free-9 (2050mil,2050mil)*%
%ADD52C,0.030000*%
%TA.AperFunction,ComponentDrill*%
%ADD53C,0.035433*%
%ADD54C,0.035433*%
%TA.AperFunction,ViaDrill,NotFilled*%
%ADD55C,0.007874*%
%ADD56C,0.028000*%
D32*
X1685000Y2430000D02*
D03*
D33*
X2830000Y2221850D02*
D03*
D34*
X1895000Y2640000D02*
D03*
D35*
X1774567Y2545000D02*
D03*
D36*
X1990000Y2540000D02*
D03*
D37*
X1140000Y2545000D02*
D03*
D38*
X1485000Y2595000D02*
D03*
D39*
X1845433Y2250000D02*
D03*
D40*
X1655000Y2620000D02*
D03*
D41*
X1175000Y1975000D02*
D03*
D42*
X1835000Y1590000D02*
D03*
D43*
X2855000Y1060000D02*
D03*
D44*
X1685000Y1400000D02*
D03*
D45*
X1560000Y2375000D02*
D03*
D46*
X1515000Y2200000D02*
D03*
D47*
X2755000Y2328150D02*
D03*
D48*
X1770000Y1750000D02*
D03*
D49*
X2845000Y2110000D02*
D03*
D50*
X1570000Y1625000D02*
D03*
D51*
X1375000Y1905000D02*
D03*
D52*
X2050000Y2050000D02*
D03*
D53*
X1085000Y2155000D02*
D03*
Y2055000D02*
D03*
X2780000Y1650866D02*
D03*
Y1550866D02*
D03*
D54*
X1210866Y2890000D02*
D03*
X1110866D02*
D03*
X1695000Y2840000D02*
D03*
Y2740000D02*
D03*
X1795000Y2840000D02*
D03*
Y2740000D02*
D03*
X1895000Y2840000D02*
D03*
Y2740000D02*
D03*
D55*
X1658307Y1966693D02*
D03*
X1615000D02*
D03*
X1571693D02*
D03*
X1658307Y2010000D02*
D03*
X1615000D02*
D03*
X1571693D02*
D03*
X1658307Y2053307D02*
D03*
X1615000D02*
D03*
X1571693D02*
D03*
D56*
X1285866Y2595000D02*
D03*
%TF.MD5,2A257EA32F410DFC86AAD7F76B1BAAD8*%
M02*
